<?xml version="1.0" encoding="utf-8"?>
<!-- Generator: Adobe Illustrator 22.1.0, SVG Export Plug-In . SVG Version: 6.00 Build 0)  -->
<svg version="1.1" id="Layer_1" xmlns="http://www.w3.org/2000/svg" xmlns:xlink="http://www.w3.org/1999/xlink" x="0px" y="0px"
	 viewBox="0 0 132 125" style="enable-background:new 0 0 132 125;" xml:space="preserve">
<style type="text/css">
	.st0{fill:#82CF8F;}
	.st1{fill:#CDD5D8;}
	.st2{fill:#E5E8EC;}
	.st3{fill:#30363D;}
	.st4{fill:#F7F8FC;}
	.st5{fill:#484F59;}
	.st6{fill:#FF876C;}
</style>
<g id="Oval-Copy">
	<circle id="path-1_1_" class="st0" cx="67.5" cy="62.5" r="62.5"/>
</g>
<title>Loading / 1 - Map</title>
<desc>Created with Sketch.</desc>
<g>
	<g>
		<g>
			<g>
				<polygon class="st1" points="35.9,99.8 32.2,96.4 35.9,65 54,35.5 104.5,35.5 104.5,54.2 104.5,78.8 104.5,99.8 				"/>
				<polygon class="st2" points="35.9,99.8 32.2,96.4 97.4,93.3 104.5,99.8 				"/>
				<polygon class="st3" points="104.5,51 104.5,35.5 100.8,32.2 100.8,47.7 				"/>
				<polygon class="st4" points="32.2,96.4 32.2,75.5 32.2,32.2 50.3,32.2 100.8,32.2 100.8,50.8 100.8,75.5 100.8,96.4 				"/>
				<rect x="32.2" y="32.2" class="st5" width="68.6" height="15.5"/>
				<g>
					<path class="st3" d="M46,41.5c0,1.7,1.4,3.1,3.1,3.1c1.7,0,3.1-1.4,3.1-3.1c0-1.7-1.4-3.1-3.1-3.1C47.5,38.3,46,39.7,46,41.5z"
						/>
					<path class="st2" d="M48.8,39.9h-1c-1,0-1.8-0.8-1.8-1.8v-6.3c0-1,0.8-1.8,1.8-1.8h1c1,0,1.7,0.7,1.8,1.7h3
						C53.5,29,51.4,27,48.8,27h-3.3c-2.6,0-4.8,2.2-4.8,4.8v6.3c0,2.7,2.2,4.8,4.8,4.8h3.3c0.8,0,1.5-0.7,1.5-1.5
						C50.3,40.6,49.6,39.9,48.8,39.9z"/>
					<path class="st1" d="M48.9,27c-2.6,0.1-4.7,2.2-4.7,4.8v6.3c0,2.6,2.1,4.7,4.6,4.8c0.8,0,1.4-0.7,1.4-1.5
						c0-0.8-0.7-1.5-1.5-1.5h-1c-1,0-1.8-0.8-1.8-1.8v-6.3c0-1,0.8-1.8,1.8-1.8h1c1,0,1.7,0.7,1.8,1.7h3
						C53.5,29.1,51.5,27.1,48.9,27z"/>
				</g>
				<g>
					<path class="st3" d="M81.2,41.5c0,1.7,1.4,3.1,3.1,3.1c1.7,0,3.1-1.4,3.1-3.1c0-1.7-1.4-3.1-3.1-3.1
						C82.6,38.3,81.2,39.7,81.2,41.5z"/>
					<path class="st2" d="M83.9,39.9h-1c-1,0-1.8-0.8-1.8-1.8v-6.3c0-1,0.8-1.8,1.8-1.8h1c1,0,1.7,0.7,1.8,1.7h3
						C88.6,29,86.5,27,83.9,27h-3.3c-2.6,0-4.8,2.2-4.8,4.8v6.3c0,2.7,2.2,4.8,4.8,4.8h3.3c0.8,0,1.5-0.7,1.5-1.5
						C85.4,40.6,84.7,39.9,83.9,39.9z"/>
					<path class="st1" d="M84.1,27c-2.6,0.1-4.7,2.2-4.7,4.8v6.3c0,2.6,2.1,4.7,4.6,4.8c0.8,0,1.4-0.7,1.4-1.5
						c0-0.8-0.7-1.5-1.5-1.5h-1c-1,0-1.8-0.8-1.8-1.8v-6.3c0-1,0.8-1.8,1.8-1.8h1c1,0,1.7,0.7,1.8,1.7h3
						C88.6,29.1,86.6,27.1,84.1,27z"/>
				</g>
			</g>
		</g>
	</g>
	<g>
		<g>
			<rect x="36.2" y="53.8" class="st2" width="6.7" height="5.8"/>
		</g>
		<g>
			<rect x="45" y="53.8" class="st2" width="6.7" height="5.8"/>
		</g>
		<g>
			<rect x="53.7" y="53.8" class="st1" width="6.7" height="5.8"/>
		</g>
		<g>
			<rect x="62.4" y="53.8" class="st1" width="6.7" height="5.8"/>
		</g>
		<g>
			<rect x="71.2" y="53.8" class="st1" width="6.7" height="5.8"/>
		</g>
		<g>
			<rect x="79.9" y="53.8" class="st1" width="6.7" height="5.8"/>
		</g>
		<g>
			<rect x="88.7" y="53.8" class="st1" width="6.7" height="5.8"/>
		</g>
	</g>
	<g>
		<g>
			<rect x="36.2" y="61.6" class="st1" width="6.7" height="5.8"/>
		</g>
		<g>
			<rect x="45" y="61.6" class="st1" width="6.7" height="5.8"/>
		</g>
		<g>
			<rect x="53.7" y="61.6" class="st1" width="6.7" height="5.8"/>
		</g>
		<g>
			<rect x="62.4" y="61.6" class="st1" width="6.7" height="5.8"/>
		</g>
		<g>
			<rect x="71.2" y="61.6" class="st1" width="6.7" height="5.8"/>
		</g>
		<g>
			<rect x="79.9" y="61.6" class="st1" width="6.7" height="5.8"/>
		</g>
		<g>
			<rect x="88.7" y="61.6" class="st1" width="6.7" height="5.8"/>
		</g>
	</g>
	<g>
		<g>
			<rect x="36.2" y="69.5" class="st1" width="6.7" height="5.8"/>
		</g>
		<g>
			<rect x="45" y="69.5" class="st1" width="6.7" height="5.8"/>
		</g>
		<g>
			<rect x="53.7" y="69.5" class="st1" width="6.7" height="5.8"/>
		</g>
		<g>
			<rect x="62.4" y="69.5" class="st6" width="6.7" height="5.8"/>
		</g>
		<g>
			<rect x="71.2" y="69.5" class="st1" width="6.7" height="5.8"/>
		</g>
		<g>
			<rect x="79.9" y="69.5" class="st1" width="6.7" height="5.8"/>
		</g>
		<g>
			<rect x="88.7" y="69.5" class="st1" width="6.7" height="5.8"/>
		</g>
	</g>
	<g>
		<g>
			<rect x="36.2" y="77.3" class="st6" width="6.7" height="5.8"/>
		</g>
		<g>
			<rect x="45" y="77.3" class="st1" width="6.7" height="5.8"/>
		</g>
		<g>
			<rect x="53.7" y="77.3" class="st1" width="6.7" height="5.8"/>
		</g>
		<g>
			<rect x="62.4" y="77.3" class="st1" width="6.7" height="5.8"/>
		</g>
		<g>
			<rect x="71.2" y="77.3" class="st1" width="6.7" height="5.8"/>
		</g>
		<g>
			<rect x="79.9" y="77.3" class="st1" width="6.7" height="5.8"/>
		</g>
		<g>
			<rect x="88.7" y="77.3" class="st1" width="6.7" height="5.8"/>
		</g>
	</g>
	<g>
		<g>
			<rect x="36.2" y="85.2" class="st1" width="6.7" height="5.8"/>
		</g>
		<g>
			<rect x="45" y="85.2" class="st1" width="6.7" height="5.8"/>
		</g>
		<g>
			<rect x="53.7" y="85.2" class="st1" width="6.7" height="5.8"/>
		</g>
		<g>
			<rect x="62.4" y="85.2" class="st1" width="6.7" height="5.8"/>
		</g>
		<g>
			<rect x="71.2" y="85.2" class="st2" width="6.7" height="5.8"/>
		</g>
		<g>
			<rect x="79.9" y="85.2" class="st2" width="6.7" height="5.8"/>
		</g>
		<g>
			<rect x="88.7" y="85.2" class="st2" width="6.7" height="5.8"/>
		</g>
	</g>
</g>
</svg>
