<?xml version="1.0" encoding="utf-8"?>
<!-- Generator: Adobe Illustrator 22.1.0, SVG Export Plug-In . SVG Version: 6.00 Build 0)  -->
<svg version="1.1" id="Layer_1" xmlns="http://www.w3.org/2000/svg" xmlns:xlink="http://www.w3.org/1999/xlink" x="0px" y="0px"
	 viewBox="0 0 141 125" style="enable-background:new 0 0 141 125;" xml:space="preserve">
<style type="text/css">
	.st0{fill:#8CC152;}
	.st1{fill:#A0D468;}
	.st2{fill:#BBDB91;}
	.st3{fill:#F5F7FA;}
</style>
<title>Loading / 4 - Contractor</title>
<desc>Created with Sketch.</desc>
<g>
	<path class="st0" d="M73.5,5.4l5.8-4.1l4.1,5.8l6.4-3.1l3.1,6.5l6.8-1.9l1.9,6.9l7.1-0.7l0.6,7.1l7.1,0.6l-0.6,7.1l6.9,1.8
		l-1.8,6.9l6.4,2.9l-3,6.5l5.8,4l-4.1,5.9l5,5l-5,5.1l4.1,5.8l-5.8,4.1l3,6.4l-6.4,3.1l1.9,6.8l-6.9,1.9l0.6,7l-7.1,0.7l-0.6,7.1
		l-7.1-0.6l-1.8,6.9l-6.9-1.8l-3,6.4l-1.1-0.5l-5.4-2.5l-4,5.8l-5.9-4.1l-5,5l-5.1-5l-5.9,4.1l-4-5.8l-5.4,2.5l-1.1,0.5l-3-6.4
		l-6.9,1.8l-1.8-6.9l-7.1,0.6l-0.6-7.1l-7.1-0.7l0.6-7l-6.9-1.9l1.9-6.8l-6.4-3.1l3-6.4L7,73.7l4.1-5.8l-5-5.1l5-5L7,52l5.8-4
		l-3-6.5l6.4-3l-1.8-6.9l6.9-1.8l-0.6-7.1l7.1-0.6l0.6-7.1l7.1,0.7l1.9-6.9l6.9,1.9l3-6.5l6.4,3l4.1-5.8l5.8,4.1l5.1-5L73.5,5.4z
		 M68.5,112.3c27.3,0,49.4-22.1,49.4-49.4c0-27.3-22.1-49.4-49.4-49.4c-27.3,0-49.4,22.1-49.4,49.4C19.1,90.2,41.3,112.3,68.5,112.3
		L68.5,112.3z M68.5,112.3"/>
	<path class="st1" d="M68.5,13.6c27.3,0,49.4,22.1,49.4,49.4c0,27.3-22.1,49.4-49.4,49.4c-27.3,0-49.4-22.1-49.4-49.4
		C19.1,35.7,41.3,13.6,68.5,13.6L68.5,13.6z M93,53.9"/>
</g>
<path class="st2" d="M109.6,61.6l1.9-1.9c1.2-1.2,1.2-3.1,0-4.2c-1.2-1.2-3.1-1.2-4.2,0l-21,21L71,61c-0.6-0.6-1.5-0.6-2.1,0
	c-0.6,0.6-0.6,1.5,0,2.1l15.4,15.4L70.4,92.3L53.1,75.1l48.6-48.6c-1.5-1.4-3.1-2.6-4.7-3.8L82.9,36.8c-0.1-0.1-0.2-0.2-0.3-0.3
	l-10-10l10.7-10.7c-2.2-0.7-4.5-1.2-6.9-1.6l-8.1,8.1l-8.1-8.1c-2.3,0.4-4.6,0.9-6.8,1.6l0.2,0.2L24,45.9l-1.3-1.3
	c-0.8,2.1-1.5,4.2-2.1,6.4l9.5,9.5L19.8,70.9c0.4,2.3,0.9,4.6,1.6,6.9l2-2L33.7,86l-5.5,5.5c1.2,1.6,2.4,3.2,3.8,4.7l6-6l17.3,17.3
	l-2.3,2.3c3.6,1.2,7.3,2,11.2,2.3l-2.5-2.5l26.9-26.9l8.9,8.9c0.3,0.3,0.7,0.4,1.1,0.4s0.8-0.1,1.1-0.4c0.6-0.6,0.6-1.5,0-2.1
	l-8.9-8.9l14.8-14.8L116,76.5c0.6-2.3,1.1-4.6,1.4-7L109.6,61.6z M78.4,40.8c0.1,0.1,0.2,0.2,0.3,0.3L48.9,70.8L38.6,60.6l29.8-29.8
	L78.4,40.8z M26.1,48l29.8-29.8l8.3,8.3L34.4,56.3L26.1,48z M35.8,83.9L25.6,73.6l8.8-8.8l10.3,10.3L35.8,83.9z M57.3,105.4
	L40.1,88.1l8.8-8.8l17.3,17.3L57.3,105.4z"/>
<path class="st3" d="M90.4,41.4c2.8-2.8,7.4-2.8,10.1,0c2.8,2.8,2.8,7.4,0,10.1L64.6,87.4c-1.4,1.4-3.2,2.1-5.1,2.1
	c-1.8,0-3.7-0.7-5.1-2.1L40.2,73.1c-2.8-2.8-2.8-7.3,0-10.1c2.8-2.8,7.4-2.8,10.1,0l9.3,9.3L90.4,41.4z M90.4,41.4"/>
</svg>
