<svg version="1.1" id="Layer_1" xmlns="http://www.w3.org/2000/svg" xmlns:xlink="http://www.w3.org/1999/xlink" x="0px" y="0px"
	 viewBox="0 0 76 99.6" style="enable-background:new 0 0 76 99.6;" xml:space="preserve">
<style type="text/css">
	.st0{fill:none;stroke:#FFFFFF;stroke-width:0.2;stroke-miterlimit:10;}
	.st1{fill:#FFFDFD;}
</style>
	<defs>
		<filter id="blur">
			<feGaussianBlur in="SourceGraphic" stdDeviation="1" />
		</filter>
		<filter id="blur2">
			<feGaussianBlur in="SourceGraphic" stdDeviation="0.3" />
		</filter>
  </defs>
<polygon class="st1" points="24.4,24.1 20.1,29.6 26.9,31.3 20,31.5 22.9,37.7 18.5,32.4 15.3,38.6 16.7,31.8 9.9,33.3 16.1,30.1 
	10.7,25.6 17,28.5 17.1,21.6 18.9,28.3 "/>
<polygon class="st1" points="74.1,1.2 71.7,4.9 76,5.6 71.7,6 73.8,9.8 70.8,6.7 69.2,10.7 69.7,6.4 65.5,7.6 69.2,5.3 65.7,2.9 
	69.8,4.3 69.5,0 70.9,4.1 "/>
<path class="st1" d="M44.8,22.1c-0.1,1.5,0.4,4,1.3,8.3c0-4.3,0.2-6.9-0.2-8.4c0.7,0.8,2.4,1.8,4.8,3.4c-2-2.1-3.3-3.5-4.2-4.1
	c1.5,0.1,4-0.4,8.3-1.3c-4.3,0-6.9-0.2-8.4,0.2c0.8-0.7,1.8-2.4,3.4-4.8c-2.1,2-3.5,3.3-4.1,4.2c0.1-1.5-0.4-4-1.3-8.3
	c0,4.3-0.2,6.9,0.2,8.4c-0.7-0.8-2.4-1.8-4.8-3.4c2,2.1,3.3,3.5,4.2,4.1c-1.5-0.1-4,0.4-8.3,1.3c4.3,0,6.9,0.2,8.4-0.2
	c-0.8,0.7-1.8,2.4-3.4,4.8C42.7,24.2,44.1,22.9,44.8,22.1z M45.1,20.8L45.1,20.8L45.1,20.8L45.1,20.8C45.2,20.8,45.2,20.8,45.1,20.8
	C45.2,20.8,45.2,20.8,45.1,20.8C45.2,20.8,45.2,20.8,45.1,20.8C45.2,20.8,45.2,20.8,45.1,20.8C45.2,20.8,45.2,20.8,45.1,20.8
	C45.2,20.8,45.2,20.8,45.1,20.8C45.2,20.8,45.2,20.8,45.1,20.8C45.2,20.8,45.2,20.8,45.1,20.8C45.2,20.8,45.1,20.9,45.1,20.8
	C45.1,20.9,45.2,20.8,45.1,20.8C45.2,20.8,45.1,20.9,45.1,20.8C45.1,20.9,45.2,20.8,45.1,20.8C45.2,20.8,45.1,20.8,45.1,20.8z"/>
<polyline class="st0" points="70.8,5.3 45.2,20.8 18.4,30 11,41.3 6.2,43.4 3.5,46.4 10.5,67.4 23.9,74.8 30.7,95 "/>
<path class="st1" d="M25.5,83.5c-0.9,1.2-1.7,3.7-3.2,7.8c2.2-3.7,3.8-5.8,4.2-7.3c0.2,1.1,1.2,2.8,2.4,5.4c-0.6-2.8-1-4.7-1.5-5.7
	c1.2,0.9,3.7,1.7,7.8,3.2c-3.7-2.2-5.8-3.8-7.3-4.2c1.1-0.2,2.8-1.2,5.4-2.4c-2.8,0.6-4.7,1-5.7,1.5c0.9-1.2,1.7-3.7,3.2-7.8
	c-2.2,3.7-3.8,5.8-4.2,7.3c-0.2-1.1-1.2-2.8-2.4-5.4c0.6,2.8,1,4.7,1.5,5.7c-1.2-0.9-3.7-1.7-7.8-3.2c3.7,2.2,5.8,3.8,7.3,4.2
	c-1.1,0.2-2.8,1.2-5.4,2.4C22.6,84.2,24.5,83.9,25.5,83.5z M26.5,82.5L26.5,82.5L26.5,82.5L26.5,82.5C26.5,82.6,26.5,82.6,26.5,82.5
	C26.5,82.6,26.5,82.6,26.5,82.5C26.5,82.6,26.5,82.6,26.5,82.5C26.5,82.6,26.5,82.6,26.5,82.5C26.5,82.6,26.5,82.6,26.5,82.5
	C26.5,82.6,26.5,82.6,26.5,82.5C26.5,82.6,26.5,82.6,26.5,82.5C26.5,82.6,26.5,82.6,26.5,82.5C26.5,82.6,26.4,82.7,26.5,82.5
	C26.4,82.7,26.5,82.6,26.5,82.5C26.5,82.6,26.4,82.7,26.5,82.5C26.4,82.7,26.5,82.6,26.5,82.5C26.5,82.6,26.5,82.5,26.5,82.5z"/>
<polygon class="st1" points="8.6,46 6.4,44 5.5,46.8 5.6,43.9 2.9,44.9 5.3,43.3 2.8,41.8 5.6,42.5 5.2,39.6 6.4,42.3 8.4,40.2 
	7,42.8 9.9,43.1 7,43.6 "/>
<polygon class="st1" points="5.8,49.1 3.6,47.1 2.7,49.9 2.9,47 0.1,48 2.5,46.3 0,44.8 2.8,45.6 2.5,42.7 3.6,45.4 5.6,43.3 
	4.2,45.9 7.1,46.2 4.2,46.7 "/>
<polygon class="st1" points="10.1,72 9.9,68.2 6.5,69.9 9.3,67.4 5.9,65.8 9.6,66.4 8.7,62.8 10.5,66.1 12.9,63.1 11.4,66.6 
	15.2,66.5 11.5,67.6 14,70.5 10.9,68.3 "/>
<polygon class="st1" points="30.2,99.6 30,95.7 26.6,97.4 29.5,94.9 26,93.4 29.7,94 28.8,90.3 30.7,93.6 33,90.6 31.6,94.2 
	35.3,94 31.7,95.2 34.1,98 31,95.9 "/>
<polygon class="st1" points="23.5,78.7 23.3,75.7 20.7,77 22.9,75.1 20.2,73.8 23.1,74.3 22.4,71.5 23.8,74.1 25.6,71.7 24.5,74.5 
	27.4,74.4 24.6,75.3 26.5,77.5 24.1,75.8 "/>
</svg>
