<svg version="1.1" id="Layer_1" xmlns="http://www.w3.org/2000/svg" xmlns:xlink="http://www.w3.org/1999/xlink" x="0px" y="0px"
	 viewBox="0 0 80.1 102.6" style="enable-background:new 0 0 80.1 102.6;" xml:space="preserve">
<style type="text/css">
	.st0{fill:none;stroke:#FFFFFF;stroke-width:0.2;stroke-miterlimit:10;}
	.st1{fill:#FFFDFD;}
</style>
	<defs>
		<filter id="blur">
			<feGaussianBlur in="SourceGraphic" stdDeviation="1" />
		</filter>
		<filter id="blur2">
			<feGaussianBlur in="SourceGraphic" stdDeviation="0.3" />
		</filter>
  </defs>
<polyline class="st0" points="24.2,9.5 42.8,33.4 64.4,67.3 71.7,89.2 66,97.4 "/>
<polyline class="st0" points="75.1,72.2 65.1,67.6 19.1,49 8,35.6 "/>
<line class="st0" x1="5.3" y1="44.6" x2="19.1" y2="49"/>
<polygon class="st1" points="24.2,0.7 25.1,7.6 31.1,4 26.3,9 32.8,11.4 25.9,10.8 28,17.4 24.2,11.6 20.4,17.4 22.6,10.8 
	15.6,11.4 22.1,9 17.3,4 23.3,7.6 "/>
<polygon class="st1" points="9,40 6.6,43.7 10.9,44.4 6.6,44.8 8.7,48.6 5.7,45.5 4.1,49.5 4.6,45.2 0.4,46.4 4.1,44.1 0.6,41.7 
	4.7,43.1 4.4,38.8 5.8,42.9 "/>
<polygon class="st1" points="11.5,30.9 9,34.7 13.5,35.5 9,35.9 11.2,39.9 8,36.7 6.3,40.8 6.9,36.4 2.5,37.6 6.4,35.3 2.7,32.6 
	6.9,34.2 6.7,29.7 8.1,34 "/>
<polygon class="st1" points="77.1,67.2 75.7,71.1 79.8,70.8 75.9,72.2 78.7,75.2 75.2,73 74.6,77.1 74.1,73 70.6,75 73.5,72.1 
	69.6,70.6 73.7,71 72.5,67.1 74.7,70.6 " />
<polygon class="st1" points="66.2,93.4 66.6,96.5 69.2,94.9 67.1,97.1 70,98.1 67,97.9 67.9,100.8 66.2,98.2 64.6,100.8 65.5,97.9 
	62.5,98.2 65.3,97.1 63.2,94.9 65.8,96.5 " />
<polygon class="st1" points="42.9,26.5 43.7,32 48.4,29.1 44.6,33.2 49.8,35.1 44.3,34.6 46,39.9 42.9,35.2 39.9,39.9 41.6,34.6 
	36.1,35.1 41.3,33.2 37.4,29.1 42.2,32 " />
<path class="st1" d="M64.9,68.4c0.9,1.2,3,2.7,6.5,5.3c-2.9-3.2-4.5-5.3-5.8-6.1c1.1,0.1,3-0.3,5.9-0.7
	c-2.9-0.2-4.8-0.4-5.9-0.2c1.2-0.9,2.7-3,5.3-6.5c-3.2,2.9-5.3,4.5-6.1,5.8c0.1-1.1-0.3-3-0.7-5.9c-0.2,2.9-0.4,4.8-0.2,5.9
	c-0.9-1.2-3-2.7-6.5-5.3c2.9,3.2,4.5,5.3,5.8,6.1c-1.1-0.1-3,0.3-5.9,0.7c2.9,0.2,4.8,0.4,5.9,0.2c-1.2,0.9-2.7,3-5.3,6.5
	c3.2-2.9,5.3-4.5,6.1-5.8c-0.1,1.1,0.3,3,0.7,5.9C64.8,71.4,65,69.5,64.9,68.4z M64.3,67.2C64.3,67.2,64.3,67.2,64.3,67.2
	C64.3,67.2,64.3,67.2,64.3,67.2C64.3,67.2,64.3,67.2,64.3,67.2C64.4,67.2,64.4,67.2,64.3,67.2C64.4,67.2,64.4,67.2,64.3,67.2
	C64.4,67.2,64.4,67.2,64.3,67.2C64.4,67.2,64.4,67.2,64.3,67.2C64.4,67.2,64.4,67.2,64.3,67.2C64.4,67.2,64.4,67.2,64.3,67.2
	C64.4,67.2,64.4,67.2,64.3,67.2C64.4,67.2,64.4,67.2,64.3,67.2C64.4,67.2,64.4,67.3,64.3,67.2C64.4,67.3,64.4,67.2,64.3,67.2
	C64.4,67.2,64.4,67.3,64.3,67.2C64.4,67.3,64.4,67.2,64.3,67.2C64.4,67.2,64.3,67.2,64.3,67.2z" />
<path  class="st1" d="M72.1,89.9c0.7,1,2.4,2.1,5.2,4.3c-2.3-2.6-3.6-4.2-4.6-4.9c0.9,0.1,2.4-0.2,4.7-0.5
	c-2.4-0.1-3.8-0.3-4.8-0.2c1-0.7,2.1-2.4,4.3-5.2c-2.6,2.3-4.2,3.6-4.9,4.6c0.1-0.9-0.2-2.4-0.5-4.7c-0.1,2.4-0.3,3.8-0.2,4.8
	c-0.7-1-2.4-2.1-5.2-4.3c2.3,2.6,3.6,4.2,4.6,4.9c-0.9-0.1-2.4,0.2-4.7,0.5c2.4,0.1,3.8,0.3,4.8,0.2c-1,0.7-2.1,2.4-4.3,5.2
	c2.6-2.3,4.2-3.6,4.9-4.6c-0.1,0.9,0.2,2.4,0.5,4.7C72.1,92.3,72.3,90.8,72.1,89.9z M71.7,89C71.7,89,71.7,89,71.7,89
	C71.7,89,71.7,89,71.7,89C71.7,89,71.7,89,71.7,89C71.7,89,71.7,88.9,71.7,89C71.7,88.9,71.7,89,71.7,89C71.8,89,71.8,88.9,71.7,89
	C71.8,88.9,71.8,89,71.7,89C71.8,89,71.8,89,71.7,89C71.8,89,71.8,89,71.7,89C71.8,89,71.8,89,71.7,89C71.8,89,71.8,89,71.7,89
	C71.8,89,71.8,89,71.7,89C71.8,89,71.8,89,71.7,89C71.7,89,71.7,89,71.7,89C71.7,89,71.7,89,71.7,89C71.7,89,71.7,89,71.7,89z" />
<path class="st1" d="M19.2,50.2c0.6,1.4,2.3,3.4,5.1,6.8c-2-3.9-3.1-6.3-4.2-7.4c1.1,0.3,3,0.5,5.9,0.8
	c-2.8-0.9-4.6-1.5-5.8-1.7c1.4-0.6,3.4-2.3,6.8-5.1c-3.9,2-6.3,3.1-7.4,4.2c0.3-1.1,0.5-3,0.8-5.9c-0.9,2.8-1.5,4.6-1.7,5.8
	c-0.6-1.4-2.3-3.4-5.1-6.8c2,3.9,3.1,6.3,4.2,7.4c-1.1-0.3-3-0.5-5.9-0.8c2.8,0.9,4.6,1.5,5.8,1.7c-1.4,0.6-3.4,2.3-6.8,5.1
	c3.9-2,6.3-3.1,7.4-4.2c-0.3,1.1-0.5,3-0.8,5.9C18.5,53.2,19.1,51.4,19.2,50.2z M19,49C19,49,19,49,19,49C19,49,19,49,19,49
	C19,49,19,49,19,49C19,49,19,49,19,49C19,49,19,49,19,49C19.1,49,19.1,49,19,49C19.1,49,19.1,49,19,49C19.1,49,19.1,49,19,49
	C19.1,49,19.1,49,19,49C19.1,49,19.1,49,19,49C19.1,49,19.1,49,19,49C19.1,49,19.1,49,19,49C19.1,49,19.1,49,19,49
	C19,49,19,49,19,49C19,49,19,49,19,49C19,49,19,49,19,49z" />
</svg>
