
<svg version="1.1" id="Layer_1" xmlns="http://www.w3.org/2000/svg" xmlns:xlink="http://www.w3.org/1999/xlink" x="0px" y="0px"
	 viewBox="0 0 59.5 93" style="enable-background:new 0 0 59.5 93;" xml:space="preserve">
<style type="text/css">
	.st0{fill:none;stroke:#FFFFFF;stroke-width:0.2;stroke-miterlimit:10;}
	.st1{fill:#FFFDFD;}
</style>
	<defs>
		<filter id="blur">
			<feGaussianBlur in="SourceGraphic" stdDeviation="1" />
		</filter>
		<filter id="blur2">
			<feGaussianBlur in="SourceGraphic" stdDeviation="0.3" />
		</filter>
  </defs>
<polyline class="st0" points="24.2,8 25.8,34.5 24.2,46 7.8,66.3 24.2,46 50.7,84.4 "/>
<polygon class="st1" points="14.4,60.2 10.2,65.8 17,67.4 10.1,67.6 13,73.9 8.6,68.6 5.4,74.8 6.8,68 0,69.4 6.2,66.3 0.8,61.8 
	7.1,64.7 7.2,57.7 9,64.5 "/>
<polygon class="st1" points="29.1,30.4 26.7,34.1 31,34.8 26.7,35.2 28.8,39 25.8,35.9 24.2,39.9 24.7,35.6 20.5,36.8 24.2,34.5 
	20.7,32.1 24.8,33.5 24.5,29.2 25.9,33.3 "/>
<path class="st1" d="M23.7,48.2c-0.1,1.5,0.4,4,1.3,8.3c0-4.3,0.2-6.9-0.2-8.4c0.7,0.8,2.4,1.8,4.8,3.4c-2-2.1-3.3-3.5-4.2-4.1
	c1.5,0.1,4-0.4,8.3-1.3c-4.3,0-6.9-0.2-8.4,0.2c0.8-0.7,1.8-2.4,3.4-4.8c-2.1,2-3.5,3.3-4.1,4.2c0.1-1.5-0.4-4-1.3-8.3
	c0,4.3-0.2,6.9,0.2,8.4c-0.7-0.8-2.4-1.8-4.8-3.4c2,2.1,3.3,3.5,4.2,4.1c-1.5-0.1-4,0.4-8.3,1.3c4.3,0,6.9,0.2,8.4-0.2
	c-0.8,0.7-1.8,2.4-3.4,4.8C21.6,50.4,23,49.1,23.7,48.2z M24.1,46.9L24.1,46.9L24.1,46.9L24.1,46.9C24.1,47,24.1,47,24.1,46.9
	C24.1,47,24.1,47,24.1,46.9C24.1,47,24.1,47,24.1,46.9C24.1,47,24.1,47,24.1,46.9C24.1,47,24.1,47,24.1,46.9
	C24.1,47,24.1,47,24.1,46.9C24.1,47,24.1,47,24.1,46.9C24.1,47,24.1,47,24.1,46.9C24.1,47,24.1,47,24.1,46.9
	C24.1,47,24.1,47,24.1,46.9C24.1,47,24.1,47,24.1,46.9C24.1,47,24.1,47,24.1,46.9C24.1,47,24.1,46.9,24.1,46.9z"/>
<path class="st1" d="M49.9,85.2c-0.9,1.2-1.7,3.7-3.2,7.8c2.2-3.7,3.8-5.8,4.2-7.3c0.2,1.1,1.2,2.8,2.4,5.4c-0.6-2.8-1-4.7-1.5-5.7
	c1.2,0.9,3.7,1.7,7.8,3.2c-3.7-2.2-5.8-3.8-7.3-4.2c1.1-0.2,2.8-1.2,5.4-2.4c-2.8,0.6-4.7,1-5.7,1.5c0.9-1.2,1.7-3.7,3.2-7.8
	c-2.2,3.7-3.8,5.8-4.2,7.3c-0.2-1.1-1.2-2.8-2.4-5.4c0.6,2.8,1,4.7,1.5,5.7c-1.2-0.9-3.7-1.7-7.8-3.2c3.7,2.2,5.8,3.8,7.3,4.2
	c-1.1,0.2-2.8,1.2-5.4,2.4C47,86,48.9,85.7,49.9,85.2z M50.9,84.3L50.9,84.3L50.9,84.3L50.9,84.3C50.9,84.4,50.9,84.4,50.9,84.3
	C50.9,84.4,50.9,84.4,50.9,84.3C50.9,84.4,50.9,84.4,50.9,84.3C50.9,84.4,50.9,84.4,50.9,84.3C50.9,84.4,50.9,84.4,50.9,84.3
	C50.9,84.4,50.9,84.4,50.9,84.3C50.9,84.4,50.9,84.4,50.9,84.3C50.9,84.4,50.9,84.4,50.9,84.3C50.9,84.4,50.8,84.4,50.9,84.3
	C50.8,84.4,50.9,84.4,50.9,84.3C50.9,84.4,50.8,84.4,50.9,84.3C50.8,84.4,50.9,84.4,50.9,84.3C50.9,84.4,50.9,84.3,50.9,84.3z"/>
<polygon class="st1" points="23.6,16.1 23.2,9.4 17.3,12.4 22.2,8 16.2,5.3 22.7,6.4 21.1,0 24.4,5.7 28.4,0.5 26,6.6 32.4,6.5 
	26.1,8.4 30.4,13.4 24.9,9.7 "/>
</svg>
