
<svg version="1.1" xmlns="http://www.w3.org/2000/svg" xmlns:xlink="http://www.w3.org/1999/xlink" x="0px" y="0px"
	 viewBox="0 0 84.9 78.2" style="enable-background:new 0 0 84.9 78.2;" xml:space="preserve">
<style type="text/css">
	.st0{fill:none;stroke:#FFFFFF;stroke-width:0.2;stroke-miterlimit:10;}
	.st1{fill:#FFFDFD;}
</style>
	<defs>
		<filter id="blur">
			<feGaussianBlur in="SourceGraphic" stdDeviation="1" />
		</filter>
		<filter id="blur2">
			<feGaussianBlur in="SourceGraphic" stdDeviation="0.3" />
		</filter>
  </defs>
<polyline class="st0" points="16.1,53.6 25.6,42.5 27.7,31.4 24.5,6.4 56.7,8.4 73.9,46.2 24.5,6.4 "/>
<polyline class="st0" points="73.9,46.3 56.5,65.8 61.3,75.6 "/>
<polygon class="st1" points="27.7,38.5 26.4,41.8 29.8,41.6 26.6,42.6 28.8,45.2 26,43.3 25.3,46.6 25.1,43.2 22.1,44.8 24.6,42.5 
	21.5,41.1 24.8,41.6 24,38.3 25.6,41.3 "/>
<polygon class="st1" points="29.7,27.4 28.4,30.7 31.8,30.5 28.6,31.5 30.8,34.1 28,32.2 27.3,35.5 27.1,32.1 24.1,33.7 26.6,31.4 
	23.5,30 26.8,30.5 26,27.2 27.6,30.2 "/>
<polygon class="st1" points="58.5,61.8 57.2,65 60.6,64.9 57.4,65.9 59.6,68.5 56.8,66.6 56.1,69.9 55.9,66.5 52.9,68.1 55.4,65.8 
	52.3,64.4 55.6,64.9 54.8,61.6 56.5,64.6 "/>
<polygon class="st1" points="63.4,71.6 62.1,74.9 65.5,74.8 62.2,75.7 64.5,78.3 61.7,76.4 61,79.7 60.7,76.3 57.8,77.9 60.2,75.6 
	57.2,74.3 60.5,74.7 59.7,71.4 61.3,74.4 "/>
<path class="st1" d="M73.6,47.5c0,1.5,0.9,3.9,2.2,8.1c-0.5-4.3-0.5-6.9-1.1-8.3c0.8,0.7,2.6,1.5,5.2,2.9c-2.2-1.9-3.7-3.1-4.7-3.6
	c1.5,0,3.9-0.9,8.1-2.2c-4.3,0.5-6.9,0.5-8.3,1.1c0.7-0.8,1.5-2.6,2.9-5.2C76,42.6,74.7,44,74.2,45c0-1.5-0.9-3.9-2.2-8.1
	c0.5,4.3,0.5,6.9,1.1,8.3c-0.8-0.7-2.6-1.5-5.2-2.9c2.2,1.9,3.7,3.1,4.7,3.6c-1.5,0-3.9,0.9-8.1,2.2c4.3-0.5,6.9-0.5,8.3-1.1
	c-0.7,0.8-1.5,2.6-2.9,5.2C71.8,49.9,73.1,48.5,73.6,47.5z M73.9,46.2L73.9,46.2L73.9,46.2L73.9,46.2C73.9,46.3,73.9,46.3,73.9,46.2
	C73.9,46.3,73.9,46.3,73.9,46.2C73.9,46.3,73.9,46.3,73.9,46.2C73.9,46.3,73.9,46.3,73.9,46.2C73.9,46.3,73.9,46.3,73.9,46.2
	C73.9,46.3,73.9,46.3,73.9,46.2C73.9,46.3,73.9,46.3,73.9,46.2C73.9,46.3,73.9,46.3,73.9,46.2C73.9,46.3,73.9,46.3,73.9,46.2
	C73.9,46.3,73.9,46.3,73.9,46.2C73.9,46.3,73.9,46.3,73.9,46.2C73.9,46.3,73.9,46.3,73.9,46.2C73.9,46.3,73.9,46.2,73.9,46.2z"/>
<path class="st1" d="M56.4,7.2c-0.8-1.3-2.8-2.9-6-5.8C53,4.8,54.4,7,55.7,8c-1.1-0.2-3,0.1-5.9,0.2c2.9,0.4,4.8,0.8,5.9,0.7
	c-1.3,0.8-2.9,2.8-5.8,6c3.4-2.6,5.6-4.1,6.6-5.3c-0.2,1.1,0.1,3,0.2,5.9c0.4-2.9,0.8-4.8,0.7-5.9c0.8,1.3,2.8,2.9,6,5.8
	c-2.6-3.4-4.1-5.6-5.3-6.6c1.1,0.2,3-0.1,5.9-0.2c-2.9-0.4-4.8-0.8-5.9-0.7c1.3-0.8,2.9-2.8,5.8-6c-3.4,2.6-5.6,4.1-6.6,5.3
	c0.2-1.1-0.1-3-0.2-5.9C56.8,4.2,56.4,6.1,56.4,7.2z M56.9,8.5L56.9,8.5L56.9,8.5L56.9,8.5C56.8,8.4,56.8,8.4,56.9,8.5
	C56.8,8.4,56.8,8.4,56.9,8.5C56.8,8.4,56.8,8.4,56.9,8.5C56.8,8.4,56.8,8.4,56.9,8.5C56.8,8.4,56.8,8.4,56.9,8.5
	C56.8,8.4,56.8,8.4,56.9,8.5C56.8,8.4,56.8,8.4,56.9,8.5C56.8,8.4,56.8,8.4,56.9,8.5C56.8,8.4,56.8,8.3,56.9,8.5
	C56.8,8.3,56.8,8.4,56.9,8.5C56.8,8.4,56.8,8.3,56.9,8.5C56.8,8.3,56.8,8.4,56.9,8.5C56.8,8.4,56.9,8.5,56.9,8.5z"/>
<path class="st1" d="M14.9,54c-1.2,0.8-2.9,2.8-5.6,6.2c3.4-2.7,5.5-4.2,6.4-5.5c-0.2,1.1,0.1,3,0.4,5.9c0.4-2.9,0.7-4.8,0.5-5.9
	c0.8,1.2,2.8,2.9,6.2,5.6c-2.7-3.4-4.2-5.5-5.5-6.4c1.1,0.2,3-0.1,5.9-0.4c-2.9-0.4-4.8-0.7-5.9-0.5c1.2-0.8,2.9-2.8,5.6-6.2
	c-3.4,2.7-5.5,4.2-6.4,5.5c0.2-1.1-0.1-3-0.4-5.9c-0.4,2.9-0.7,4.8-0.5,5.9c-0.8-1.2-2.8-2.9-6.2-5.6c2.7,3.4,4.2,5.5,5.5,6.4
	c-1.1-0.2-3,0.1-5.9,0.4C11.9,53.7,13.8,54,14.9,54z M16.1,53.5L16.1,53.5L16.1,53.5L16.1,53.5C16.1,53.6,16.1,53.6,16.1,53.5
	C16.1,53.6,16.1,53.6,16.1,53.5C16.1,53.6,16.1,53.6,16.1,53.5C16.1,53.6,16.1,53.6,16.1,53.5C16.1,53.6,16.1,53.6,16.1,53.5
	C16.1,53.6,16.1,53.6,16.1,53.5C16.1,53.6,16.1,53.6,16.1,53.5C16.1,53.6,16.1,53.6,16.1,53.5C16.1,53.6,16,53.6,16.1,53.5
	C16,53.6,16.1,53.6,16.1,53.5C16.1,53.6,16,53.6,16.1,53.5C16,53.6,16.1,53.6,16.1,53.5C16.1,53.6,16.1,53.5,16.1,53.5z"/>
<path class="st1" d="M23.4,6.8c-1.1,0.7-2.6,2.5-5.1,5.5c3-2.4,5-3.7,5.8-4.9c-0.2,1,0.1,2.7,0.3,5.3c0.3-2.6,0.6-4.3,0.5-5.3
	c0.7,1.1,2.5,2.6,5.5,5.1c-2.4-3-3.7-5-4.9-5.8c1,0.2,2.7-0.1,5.3-0.3c-2.6-0.3-4.3-0.6-5.3-0.5c1.1-0.7,2.6-2.5,5.1-5.5
	c-3,2.4-5,3.7-5.8,4.9c0.2-1-0.1-2.7-0.3-5.3c-0.3,2.6-0.6,4.3-0.5,5.3c-0.7-1.1-2.5-2.6-5.5-5.1c2.4,3,3.7,5,4.9,5.8
	c-1-0.2-2.7,0.1-5.3,0.3C20.7,6.5,22.4,6.8,23.4,6.8z M24.5,6.3L24.5,6.3L24.5,6.3L24.5,6.3C24.5,6.4,24.5,6.4,24.5,6.3
	C24.5,6.4,24.5,6.4,24.5,6.3C24.5,6.4,24.5,6.4,24.5,6.3C24.5,6.4,24.5,6.4,24.5,6.3C24.5,6.4,24.5,6.4,24.5,6.3
	C24.5,6.4,24.5,6.4,24.5,6.3C24.5,6.4,24.5,6.4,24.5,6.3C24.5,6.4,24.5,6.4,24.5,6.3C24.5,6.4,24.4,6.4,24.5,6.3
	C24.4,6.4,24.5,6.4,24.5,6.3C24.5,6.4,24.4,6.4,24.5,6.3C24.4,6.4,24.5,6.4,24.5,6.3C24.5,6.4,24.5,6.3,24.5,6.3z"/>
</svg>
