
<svg version="1.1" id="Layer_1" xmlns="http://www.w3.org/2000/svg" xmlns:xlink="http://www.w3.org/1999/xlink" x="0px" y="0px"
	 viewBox="0 0 71 105.4" style="enable-background:new 0 0 71 105.4;" xml:space="preserve">
<style type="text/css">
	.st0{fill:none;stroke:#FFFFFF;stroke-width:0.2;stroke-miterlimit:10;}
	.st1{fill:#FFFDFD;}
</style>
	<defs>
		<filter id="blur">
			<feGaussianBlur in="SourceGraphic" stdDeviation="1" />
		</filter>
		<filter id="blur2">
			<feGaussianBlur in="SourceGraphic" stdDeviation="0.3" />
		</filter>
  </defs>
<polyline class="st0" points="59.2,5.6 54.6,6.6 51.7,10.5 46.8,14.1 32.2,15.8 19.8,18.8 4.6,20.2 8.3,23.3 15,24.8 18.9,28.2 
	26.4,33.4 29.8,37.2 33.4,44.7 49.8,70.3 53.7,80.5 48.7,86.4 51.5,93.5 57.7,95 66.9,101.4 57.7,95 61.1,91.3 59.6,85.5 53.7,80.5 
	"/>
<polygon class="st1" points="56.9,2.9 55.6,6.1 59,6 55.7,6.9 58,9.5 55.2,7.6 54.5,10.9 54.3,7.5 51.3,9.1 53.7,6.8 50.7,5.5 
	54,5.9 53.2,2.6 54.8,5.6 "/>
<polygon class="st1" points="56.1,9.3 52.8,10.3 55,12.9 52.2,11 51.7,14.3 51.3,11 48.3,12.6 50.8,10.2 47.7,8.9 51,9.4 50.1,6.1 
	51.9,9 53.9,6.3 52.6,9.4 "/>
<polygon class="st1" points="50.5,16.4 47.4,14.8 47.3,18.2 46.6,14.9 43.8,17 45.9,14.3 42.6,13.4 46.1,13.4 44.7,10.3 46.8,12.9 
	48.4,10 47.7,13.3 51,12.7 47.9,14.1 "/>
<polygon class="st1" points="23.5,21 20.4,19.4 20.3,22.8 19.5,19.5 16.8,21.6 18.9,18.9 15.6,17.9 19.1,18 17.7,14.9 19.8,17.5 
	21.4,14.6 20.6,17.8 24,17.3 20.9,18.7 "/>
<polygon class="st1" points="7.9,26.7 7.9,24.2 5.7,25.2 7.6,23.7 5.4,22.6 7.8,23 7.3,20.6 8.4,22.9 10,21 9,23.2 11.4,23.3 
	9,23.9 10.5,25.8 8.6,24.3 "/>
<polygon class="st1" points="14.6,28.1 14.6,25.6 12.3,26.6 14.3,25 12,23.9 14.4,24.4 14,22 15.1,24.3 16.6,22.3 15.6,24.6 
	18.1,24.6 15.7,25.2 17.1,27.2 15.2,25.7 "/>
<polygon class="st1" points="16.2,29.4 18.5,28.2 16.5,26.7 18.8,27.7 18.7,25.2 19.4,27.5 21.3,26 19.9,28 22.3,28.5 19.8,28.6 
	20.9,30.8 19.3,29 18.2,31.2 18.7,28.8 "/>
<polygon class="st1" points="32.9,47.8 32.9,45.3 30.7,46.3 32.6,44.7 30.4,43.6 32.8,44.1 32.4,41.7 33.4,44 35,42 34,44.3 
	36.4,44.3 34,44.9 35.5,46.9 33.6,45.4 "/>
<polygon class="st1" points="25.9,36.8 25.9,34.3 23.7,35.3 25.6,33.7 23.4,32.6 25.8,33.1 25.4,30.7 26.4,32.9 28,31 27,33.3 
	29.4,33.3 27,33.9 28.5,35.9 26.6,34.4 "/>
<polygon class="st1" points="53.4,83.4 53.4,80.8 51.2,81.8 53.1,80.3 50.9,79.2 53.3,79.7 52.9,77.3 53.9,79.5 55.5,77.6 
	54.5,79.8 56.9,79.9 54.5,80.5 56,82.5 54.1,80.9 "/>
<polygon class="st1" points="48.2,89.4 48.2,86.9 46,87.9 47.9,86.4 45.7,85.3 48,85.7 47.6,83.3 48.7,85.6 50.3,83.7 49.2,85.9 
	51.7,86 49.3,86.5 50.8,88.5 48.9,87 "/>
<polygon class="st1" points="59,89.8 59.1,86.6 56.3,87.9 58.6,86 55.9,84.6 58.8,85.2 58.3,82.2 59.7,85 61.6,82.7 60.3,85.4 
	63.3,85.5 60.4,86.2 62.2,88.7 59.8,86.7 "/>
<polygon class="st1" points="60.9,94.4 60.9,91.9 58.6,92.9 60.5,91.3 58.3,90.2 60.7,90.7 60.3,88.3 61.4,90.5 62.9,88.6 
	61.9,90.9 64.3,90.9 62,91.5 63.4,93.5 61.5,91.9 "/>
<polygon class="st1" points="51,96.6 51.1,94 48.8,95 50.7,93.5 48.5,92.4 50.9,92.9 50.5,90.5 51.6,92.7 53.1,90.8 52.1,93 
	54.5,93.1 52.2,93.7 53.6,95.7 51.7,94.1 "/>
<polygon class="st1" points="66.5,105.4 66.5,102.1 63.5,103.4 66,101.4 63.1,99.9 66.2,100.6 65.7,97.4 67.1,100.4 69.2,97.8 
	67.8,100.8 71,100.9 67.9,101.6 69.8,104.3 67.3,102.2 "/>
<path class="st1" d="M49.6,71.5c0,1.5,0.9,3.9,2.2,8.1c-0.5-4.3-0.5-6.9-1.1-8.3c0.8,0.7,2.6,1.5,5.2,2.9c-2.2-1.9-3.7-3.1-4.7-3.6
	c1.5,0,3.9-0.9,8.1-2.2c-4.3,0.5-6.9,0.5-8.3,1.1c0.7-0.8,1.5-2.6,2.9-5.2c-1.9,2.2-3.1,3.7-3.6,4.7c0-1.5-0.9-3.9-2.2-8.1
	c0.5,4.3,0.5,6.9,1.1,8.3c-0.8-0.7-2.6-1.5-5.2-2.9c2.2,1.9,3.7,3.1,4.7,3.6c-1.5,0-3.9,0.9-8.1,2.2c4.3-0.5,6.9-0.5,8.3-1.1
	c-0.7,0.8-1.5,2.6-2.9,5.2C47.7,73.9,49,72.5,49.6,71.5z M49.8,70.2L49.8,70.2L49.8,70.2L49.8,70.2C49.9,70.3,49.9,70.3,49.8,70.2
	C49.9,70.3,49.9,70.3,49.8,70.2C49.9,70.3,49.9,70.3,49.8,70.2C49.9,70.3,49.9,70.3,49.8,70.2C49.9,70.3,49.9,70.3,49.8,70.2
	C49.9,70.3,49.9,70.3,49.8,70.2C49.9,70.3,49.9,70.3,49.8,70.2C49.9,70.3,49.9,70.3,49.8,70.2C49.9,70.3,49.8,70.3,49.8,70.2
	C49.8,70.3,49.9,70.3,49.8,70.2C49.9,70.3,49.8,70.3,49.8,70.2C49.8,70.3,49.9,70.3,49.8,70.2C49.9,70.3,49.8,70.2,49.8,70.2z"/>
<path class="st1" d="M32,17.1c0,1.5,0.9,3.9,2.2,8.1c-0.5-4.3-0.5-6.9-1.1-8.3c0.8,0.7,2.6,1.5,5.2,2.9c-2.2-1.9-3.7-3.1-4.7-3.6
	c1.5,0,3.9-0.9,8.1-2.2c-4.3,0.5-6.9,0.5-8.3,1.1c0.7-0.8,1.5-2.6,2.9-5.2c-1.9,2.2-3.1,3.7-3.6,4.7c0-1.5-0.9-3.9-2.2-8.1
	c0.5,4.3,0.5,6.9,1.1,8.3c-0.8-0.7-2.6-1.5-5.2-2.9c2.2,1.9,3.7,3.1,4.7,3.6c-1.5,0-3.9,0.9-8.1,2.2c4.3-0.5,6.9-0.5,8.3-1.1
	c-0.7,0.8-1.5,2.6-2.9,5.2C30.2,19.5,31.4,18,32,17.1z M32.2,15.8L32.2,15.8L32.2,15.8L32.2,15.8C32.3,15.8,32.3,15.8,32.2,15.8
	C32.3,15.8,32.3,15.8,32.2,15.8C32.3,15.8,32.3,15.8,32.2,15.8C32.3,15.8,32.3,15.8,32.2,15.8C32.3,15.8,32.3,15.8,32.2,15.8
	C32.3,15.8,32.3,15.8,32.2,15.8C32.3,15.8,32.3,15.8,32.2,15.8C32.3,15.8,32.3,15.8,32.2,15.8C32.3,15.8,32.2,15.9,32.2,15.8
	C32.2,15.9,32.3,15.8,32.2,15.8C32.3,15.8,32.2,15.9,32.2,15.8C32.2,15.9,32.3,15.8,32.2,15.8C32.3,15.8,32.2,15.8,32.2,15.8z"/>
<path class="st1" d="M28.9,37.3c-0.9,0.6-2,2.1-3.8,4.5c2.3-2,3.8-3.1,4.4-4c-0.1,0.8,0.2,2.1,0.4,4.2c0.2-2.1,0.4-3.4,0.2-4.2
	c0.6,0.9,2.1,2,4.5,3.8c-2-2.3-3.1-3.8-4-4.4c0.8,0.1,2.1-0.2,4.2-0.4c-2.1-0.2-3.4-0.4-4.2-0.2c0.9-0.6,2-2.1,3.8-4.5
	c-2.3,2-3.8,3.1-4.4,4c0.1-0.8-0.2-2.1-0.4-4.2c-0.2,2.1-0.4,3.4-0.2,4.2c-0.6-0.9-2.1-2-4.5-3.8c2,2.3,3.1,3.8,4,4.4
	c-0.8-0.1-2.1,0.2-4.2,0.4C26.8,37.1,28.1,37.3,28.9,37.3z M29.8,36.8L29.8,36.8L29.8,36.8L29.8,36.8C29.8,36.9,29.8,36.9,29.8,36.8
	C29.8,36.9,29.8,36.9,29.8,36.8C29.8,36.9,29.8,36.9,29.8,36.8C29.8,36.9,29.8,36.9,29.8,36.8C29.8,36.9,29.8,36.9,29.8,36.8
	C29.8,36.9,29.8,36.9,29.8,36.8C29.8,36.9,29.8,36.9,29.8,36.8C29.8,36.9,29.8,36.9,29.8,36.8C29.8,36.9,29.7,36.9,29.8,36.8
	C29.7,36.9,29.8,36.9,29.8,36.8C29.8,36.9,29.7,36.9,29.8,36.8C29.7,36.9,29.8,36.9,29.8,36.8C29.8,36.9,29.8,36.8,29.8,36.8z"/>
<path class="st1" d="M57.5,95.6c-0.5,0.7-0.9,2-1.7,4.3c1.2-2.1,2.1-3.3,2.3-4.1c0.1,0.6,0.7,1.5,1.3,3c-0.4-1.6-0.6-2.6-0.9-3.2
	c0.7,0.5,2,0.9,4.3,1.7c-2.1-1.2-3.3-2.1-4.1-2.3c0.6-0.1,1.5-0.7,3-1.3c-1.6,0.4-2.6,0.6-3.2,0.9c0.5-0.7,0.9-2,1.7-4.3
	c-1.2,2.1-2.1,3.3-2.3,4.1c-0.1-0.6-0.7-1.5-1.3-3c0.4,1.6,0.6,2.6,0.9,3.2c-0.7-0.5-2-0.9-4.3-1.7c2.1,1.2,3.3,2.1,4.1,2.3
	c-0.6,0.1-1.5,0.7-3,1.3C55.9,96,56.9,95.8,57.5,95.6z M58.1,95L58.1,95L58.1,95L58.1,95C58.1,95.1,58.1,95.1,58.1,95
	C58.1,95.1,58.1,95.1,58.1,95C58.1,95.1,58.1,95.1,58.1,95C58.1,95.1,58.1,95.1,58.1,95C58.1,95.1,58.1,95.1,58.1,95
	C58.1,95.1,58.1,95.1,58.1,95C58.1,95.1,58.1,95.1,58.1,95C58.1,95.1,58.1,95.1,58.1,95C58.1,95.1,58,95.1,58.1,95
	C58,95.1,58.1,95.1,58.1,95C58.1,95.1,58,95.1,58.1,95C58,95.1,58.1,95.1,58.1,95C58.1,95.1,58.1,95,58.1,95z"/>
<path class="st1" d="M4.2,20.7c-0.5,0.7-0.9,2-1.7,4.3C3.7,23,4.6,21.8,4.8,21c0.1,0.6,0.7,1.5,1.3,3c-0.4-1.6-0.6-2.6-0.9-3.2
	c0.7,0.5,2,0.9,4.3,1.7c-2.1-1.2-3.3-2.1-4.1-2.3c0.6-0.1,1.5-0.7,3-1.3c-1.6,0.4-2.6,0.6-3.2,0.9c0.5-0.7,0.9-2,1.7-4.3
	c-1.2,2.1-2.1,3.3-2.3,4.1c-0.1-0.6-0.7-1.5-1.3-3c0.4,1.6,0.6,2.6,0.9,3.2c-0.7-0.5-2-0.9-4.3-1.7c2.1,1.2,3.3,2.1,4.1,2.3
	c-0.6,0.1-1.5,0.7-3,1.3C2.6,21.2,3.7,21,4.2,20.7z M4.8,20.2L4.8,20.2L4.8,20.2L4.8,20.2C4.8,20.3,4.8,20.3,4.8,20.2
	C4.8,20.3,4.8,20.3,4.8,20.2C4.8,20.3,4.8,20.3,4.8,20.2C4.8,20.3,4.8,20.3,4.8,20.2C4.8,20.3,4.8,20.3,4.8,20.2
	C4.8,20.3,4.8,20.3,4.8,20.2C4.8,20.3,4.8,20.3,4.8,20.2C4.8,20.3,4.8,20.3,4.8,20.2C4.8,20.3,4.7,20.3,4.8,20.2
	C4.7,20.3,4.8,20.3,4.8,20.2C4.8,20.3,4.7,20.3,4.8,20.2C4.7,20.3,4.8,20.3,4.8,20.2C4.8,20.3,4.8,20.2,4.8,20.2z"/>
<path class="st1" d="M59.1,6c-0.5,0.7-0.9,2-1.7,4.3c1.2-2.1,2.1-3.3,2.3-4.1c0.1,0.6,0.7,1.5,1.3,3c-0.4-1.6-0.6-2.6-0.9-3.2
	c0.7,0.5,2,0.9,4.3,1.7c-2.1-1.2-3.3-2.1-4.1-2.3c0.6-0.1,1.5-0.7,3-1.3c-1.6,0.4-2.6,0.6-3.2,0.9c0.5-0.7,0.9-2,1.7-4.3
	c-1.2,2.1-2.1,3.3-2.3,4.1c-0.1-0.6-0.7-1.5-1.3-3c0.4,1.6,0.6,2.6,0.9,3.2c-0.7-0.5-2-0.9-4.3-1.7c2.1,1.2,3.3,2.1,4.1,2.3
	c-0.6,0.1-1.5,0.7-3,1.3C57.5,6.5,58.5,6.3,59.1,6z M59.6,5.5L59.6,5.5L59.6,5.5L59.6,5.5C59.6,5.6,59.6,5.6,59.6,5.5
	C59.6,5.6,59.6,5.6,59.6,5.5C59.6,5.6,59.6,5.6,59.6,5.5C59.6,5.6,59.6,5.6,59.6,5.5C59.6,5.6,59.6,5.6,59.6,5.5
	C59.6,5.6,59.6,5.6,59.6,5.5C59.6,5.6,59.6,5.6,59.6,5.5C59.6,5.6,59.6,5.6,59.6,5.5C59.6,5.6,59.6,5.6,59.6,5.5
	C59.6,5.6,59.6,5.6,59.6,5.5C59.6,5.6,59.6,5.6,59.6,5.5C59.6,5.6,59.6,5.6,59.6,5.5C59.6,5.6,59.6,5.5,59.6,5.5z"/>
</svg>
