
<svg version="1.1" id="Layer_1" xmlns="http://www.w3.org/2000/svg" xmlns:xlink="http://www.w3.org/1999/xlink" x="0px" y="0px"
	 viewBox="0 0 74.9 95.9" style="enable-background:new 0 0 74.9 95.9;" xml:space="preserve">
<style type="text/css">
	.st0{fill:none;stroke:#FFFFFF;stroke-width:0.2;stroke-miterlimit:10;}
	.st1{fill:#FFFDFD;}
</style>
	<defs>
		<filter id="blur">
			<feGaussianBlur in="SourceGraphic" stdDeviation="1" />
		</filter>
		<filter id="blur2">
			<feGaussianBlur in="SourceGraphic" stdDeviation="0.3" />
		</filter>
  </defs>
<polyline class="st0" points="49,35.5 41.9,42.5 38.5,37.4 18.9,29.7 4.2,39.9 7.8,67.8 16.1,86.6 27.8,78.7 16.1,86.6 32.8,88.1 
	"/>
<polyline class="st0" points="27.9,4.1 28.8,10.8 36.1,17.3 38.5,37.4 44.7,33.2 49,35.5 61.3,32 69.6,19.9 61.3,32 62.3,48.1 
	70.6,50.8 62.3,48.1 58.7,60.2 62.3,66.8 "/>
<polygon class="st1" points="6.2,36 4.9,39.2 8.3,39.1 5.1,40.1 7.3,42.6 4.5,40.8 3.8,44.1 3.6,40.6 0.6,42.3 3.1,39.9 0,38.6 
	3.3,39.1 2.5,35.8 4.1,38.8 "/>
<polygon class="st1" points="11.5,65.5 8.7,67.5 11.6,69.2 8.4,68.3 8.9,71.6 7.5,68.6 5.1,71 6.8,68 3.4,67.7 6.7,67.1 4.9,64.3 
	7.4,66.5 8.5,63.3 8.3,66.7 "/>
<polygon class="st1" points="64.3,62.8 63,66.1 66.4,65.9 63.1,66.9 65.4,69.5 62.6,67.6 61.9,70.9 61.6,67.5 58.7,69.1 61.1,66.8 
	58.1,65.4 61.4,65.9 60.6,62.6 62.2,65.6 "/>
<polygon class="st1" points="72.8,47.1 71.5,50.3 74.9,50.2 71.6,51.1 73.9,53.7 71.1,51.9 70.4,55.2 70.1,51.7 67.2,53.4 69.6,51 
	66.6,49.7 69.9,50.2 69.1,46.9 70.7,49.9 "/>
<polygon class="st1" points="64.6,45.1 63.3,48.3 66.7,48.2 63.4,49.2 65.7,51.8 62.9,49.9 62.1,53.2 61.9,49.8 59,51.4 61.4,49.1 
	58.4,47.7 61.7,48.2 60.9,44.9 62.5,47.9 "/>
<polygon class="st1" points="63.4,28.2 62.1,31.4 65.5,31.3 62.2,32.3 64.5,34.8 61.7,33 61,36.3 60.7,32.8 57.8,34.5 60.2,32.2 
	57.2,30.8 60.5,31.3 59.7,28 61.3,31 "/>
<polygon class="st1" points="71.9,16.2 70.6,19.4 74,19.3 70.8,20.3 73,22.8 70.2,21 69.5,24.3 69.3,20.8 66.3,22.5 68.8,20.2 
	65.7,18.8 69,19.3 68.2,16 69.8,19 "/>
<polygon class="st1" points="50.9,31.9 49.7,34.8 52.8,34.7 49.8,35.6 51.9,37.9 49.3,36.2 48.7,39.2 48.5,36.1 45.8,37.5 48,35.5 
	45.3,34.2 48.3,34.7 47.5,31.7 49,34.4 "/>
<polygon class="st1" points="43.9,38.5 42.6,41.7 46,41.6 42.8,42.6 45,45.1 42.2,43.3 41.5,46.6 41.3,43.1 38.3,44.8 40.8,42.4 
	37.7,41.1 41,41.6 40.2,38.3 41.8,41.3 "/>
<polygon class="st1" points="40.7,33.3 39.3,36.5 42.7,36.4 39.5,37.4 41.8,39.9 39,38.1 38.2,41.4 38,37.9 35,39.6 37.5,37.3 
	34.4,35.9 37.8,36.4 36.9,33.1 38.6,36.1 "/>
<polygon class="st1" points="38.4,13.1 37.1,16.3 40.4,16.2 37.2,17.2 39.5,19.7 36.7,17.9 35.9,21.2 35.7,17.8 32.7,19.4 
	35.2,17.1 32.1,15.7 35.5,16.2 34.6,12.9 36.3,15.9 "/>
<polygon class="st1" points="30.9,7.7 29.6,10.9 33,10.8 29.7,11.8 32,14.3 29.2,12.5 28.5,15.8 28.3,12.3 25.3,14 27.8,11.6 
	24.7,10.3 28,10.8 27.2,7.5 28.8,10.5 "/>
<polygon class="st1" points="30.1,0.2 28.8,3.4 32.2,3.3 29,4.3 31.2,6.8 28.4,5 27.7,8.3 27.5,4.8 24.5,6.5 27,4.2 23.9,2.8 
	27.2,3.3 26.4,0 28,3 "/>
<polygon class="st1" points="29.8,74.8 28.5,78 31.9,77.9 28.7,78.8 30.9,81.4 28.1,79.6 27.4,82.9 27.2,79.4 24.2,81 26.7,78.7 
	23.6,77.4 26.9,77.8 26.1,74.6 27.8,77.5 "/>
<polygon class="st1" points="35,84.2 33.6,87.4 37,87.3 33.8,88.3 36,90.8 33.3,89 32.5,92.3 32.3,88.8 29.3,90.5 31.8,88.2 
	28.7,86.8 32.1,87.3 31.2,84 32.9,87 "/>
<path class="st1" d="M15.8,87.8c0,1.5,0.9,3.9,2.2,8.1c-0.5-4.3-0.5-6.9-1.1-8.3c0.8,0.7,2.6,1.5,5.2,2.9c-2.2-1.9-3.7-3.1-4.7-3.6
	c1.5,0,3.9-0.9,8.1-2.2c-4.3,0.5-6.9,0.5-8.3,1.1c0.7-0.8,1.5-2.6,2.9-5.2c-1.9,2.2-3.1,3.7-3.6,4.7c0-1.5-0.9-3.9-2.2-8.1
	c0.5,4.3,0.5,6.9,1.1,8.3c-0.8-0.7-2.6-1.5-5.2-2.9c2.2,1.9,3.7,3.1,4.7,3.6c-1.5,0-3.9,0.9-8.1,2.2c4.3-0.5,6.9-0.5,8.3-1.1
	c-0.7,0.8-1.5,2.6-2.9,5.2C14,90.2,15.3,88.8,15.8,87.8z M16,86.5L16,86.5L16,86.5L16,86.5C16.1,86.5,16.1,86.5,16,86.5
	C16.1,86.5,16.1,86.5,16,86.5C16.1,86.5,16.1,86.5,16,86.5C16.1,86.5,16.1,86.5,16,86.5C16.1,86.5,16.1,86.5,16,86.5
	C16.1,86.5,16.1,86.5,16,86.5C16.1,86.5,16.1,86.5,16,86.5C16.1,86.5,16.1,86.5,16,86.5C16.1,86.5,16.1,86.6,16,86.5
	C16.1,86.6,16.1,86.5,16,86.5C16.1,86.5,16.1,86.6,16,86.5C16.1,86.6,16.1,86.5,16,86.5C16.1,86.5,16,86.5,16,86.5z"/>
<path class="st1" d="M44.6,33.7c0,0.7,0.4,2,1.1,4c-0.2-2.1-0.3-3.5-0.6-4.2c0.4,0.4,1.3,0.8,2.6,1.4c-1.1-0.9-1.8-1.6-2.3-1.8
	c0.7,0,2-0.4,4-1.1c-2.1,0.2-3.5,0.3-4.2,0.6c0.4-0.4,0.8-1.3,1.4-2.6c-0.9,1.1-1.6,1.8-1.8,2.3c0-0.7-0.4-2-1.1-4
	c0.2,2.1,0.3,3.5,0.6,4.2c-0.4-0.4-1.3-0.8-2.6-1.4c1.1,0.9,1.8,1.6,2.3,1.8c-0.7,0-2,0.4-4,1.1c2.1-0.2,3.5-0.3,4.2-0.6
	c-0.4,0.4-0.8,1.3-1.4,2.6C43.7,34.9,44.3,34.2,44.6,33.7z M44.7,33L44.7,33L44.7,33L44.7,33C44.7,33.1,44.7,33.1,44.7,33
	C44.7,33.1,44.7,33.1,44.7,33C44.7,33.1,44.7,33.1,44.7,33C44.7,33.1,44.7,33.1,44.7,33C44.7,33.1,44.7,33.1,44.7,33
	C44.7,33.1,44.7,33.1,44.7,33C44.7,33.1,44.7,33.1,44.7,33C44.7,33.1,44.7,33.1,44.7,33C44.7,33.1,44.7,33.1,44.7,33
	C44.7,33.1,44.7,33.1,44.7,33C44.7,33.1,44.7,33.1,44.7,33C44.7,33.1,44.7,33.1,44.7,33C44.7,33.1,44.7,33,44.7,33z"/>
<path class="st1" d="M18.7,30.3c0,0.7,0.4,2,1.1,4c-0.2-2.1-0.3-3.5-0.6-4.2c0.4,0.4,1.3,0.8,2.6,1.4c-1.1-0.9-1.8-1.6-2.3-1.8
	c0.7,0,2-0.4,4-1.1c-2.1,0.2-3.5,0.3-4.2,0.6c0.4-0.4,0.8-1.3,1.4-2.6c-0.9,1.1-1.6,1.8-1.8,2.3c0-0.7-0.4-2-1.1-4
	c0.2,2.1,0.3,3.5,0.6,4.2c-0.4-0.4-1.3-0.8-2.6-1.4c1.1,0.9,1.8,1.6,2.3,1.8c-0.7,0-2,0.4-4,1.1c2.1-0.2,3.5-0.3,4.2-0.6
	c-0.4,0.4-0.8,1.3-1.4,2.6C17.8,31.5,18.4,30.8,18.7,30.3z M18.8,29.7L18.8,29.7L18.8,29.7L18.8,29.7C18.9,29.7,18.9,29.7,18.8,29.7
	C18.9,29.7,18.9,29.7,18.8,29.7C18.9,29.7,18.9,29.7,18.8,29.7C18.9,29.7,18.9,29.7,18.8,29.7C18.9,29.7,18.9,29.7,18.8,29.7
	C18.9,29.7,18.9,29.7,18.8,29.7C18.9,29.7,18.9,29.7,18.8,29.7C18.9,29.7,18.9,29.7,18.8,29.7C18.9,29.7,18.8,29.7,18.8,29.7
	C18.8,29.7,18.9,29.7,18.8,29.7C18.9,29.7,18.8,29.7,18.8,29.7C18.8,29.7,18.9,29.7,18.8,29.7C18.9,29.7,18.8,29.7,18.8,29.7z"/>
<path class="st1" d="M58.5,60.8c0,1,0.6,2.6,1.4,5.3c-0.3-2.8-0.4-4.5-0.7-5.5c0.5,0.5,1.7,1,3.4,1.9c-1.5-1.2-2.4-2-3.1-2.4
	c1,0,2.6-0.6,5.3-1.4c-2.8,0.3-4.5,0.4-5.5,0.7c0.5-0.5,1-1.7,1.9-3.4c-1.2,1.5-2,2.4-2.4,3.1c0-1-0.6-2.6-1.4-5.3
	c0.3,2.8,0.4,4.5,0.7,5.5c-0.5-0.5-1.7-1-3.4-1.9c1.5,1.2,2.4,2,3.1,2.4c-1,0-2.6,0.6-5.3,1.4c2.8-0.3,4.5-0.4,5.5-0.7
	c-0.5,0.5-1,1.7-1.9,3.4C57.3,62.3,58.1,61.4,58.5,60.8z M58.6,59.9L58.6,59.9L58.6,59.9L58.6,59.9C58.7,59.9,58.7,59.9,58.6,59.9
	C58.7,59.9,58.7,59.9,58.6,59.9C58.7,59.9,58.7,59.9,58.6,59.9C58.7,59.9,58.7,59.9,58.6,59.9C58.7,59.9,58.7,59.9,58.6,59.9
	C58.7,59.9,58.7,59.9,58.6,59.9C58.7,59.9,58.7,59.9,58.6,59.9C58.7,59.9,58.7,59.9,58.6,59.9C58.7,59.9,58.7,60,58.6,59.9
	C58.7,60,58.7,59.9,58.6,59.9C58.7,59.9,58.7,60,58.6,59.9C58.7,60,58.7,59.9,58.6,59.9C58.7,59.9,58.6,59.9,58.6,59.9z"/>
</svg>
