<svg version="1.1" id="Layer_1" xmlns="http://www.w3.org/2000/svg" xmlns:xlink="http://www.w3.org/1999/xlink" x="0px" y="0px"
	 viewBox="0 0 80.1 85.8" style="enable-background:new 0 0 80.1 85.8;" xml:space="preserve">
<style type="text/css">
	.st0{fill:none;stroke:#FFFFFF;stroke-width:0.2;stroke-miterlimit:10;}
	.st1{fill:#FFFDFD;}
</style>
	<defs>
		<filter id="blur">
			<feGaussianBlur in="SourceGraphic" stdDeviation="1" />
		</filter>
		<filter id="blur2">
			<feGaussianBlur in="SourceGraphic" stdDeviation="0.3" />
		</filter>
  </defs>
<polygon class="st1" points="40.7,29.2 37.3,28.9 38.4,32.1 36.6,29.3 34.8,32.1 35.8,29 32.5,29.3 35.6,28.1 33.2,25.7 36.1,27.4 
	36.5,24.1 37,27.4 39.8,25.7 37.6,28.1 "/>
<polygon class="st1" points="78.9,66.9 75.4,67.2 77.1,70.3 74.6,67.8 73.3,71.1 73.7,67.6 70.3,68.5 73.3,66.7 70.4,64.6 
	73.7,65.9 73.6,62.3 74.6,65.7 77.3,63.3 75.4,66.3 "/>
<polygon class="st1" points="45.1,72.2 42.8,69.5 41.2,72.7 41.9,69.2 38.4,70 41.5,68.3 38.8,66.1 42,67.5 42.1,63.9 42.9,67.4 
	45.8,65.2 43.7,68 47.1,68.9 43.5,69 "/>
<polygon class="st1" points="46.3,55.2 44,52.5 42.4,55.6 43.1,52.2 39.6,52.9 42.8,51.2 40.1,49 43.2,50.5 43.3,46.9 44.2,50.4 
	47,48.2 44.9,51 48.3,51.9 44.8,51.9 "/>
<polygon class="st1" points="45.9,83.2 46.2,79.6 42.8,80.7 45.8,78.8 42.8,76.8 46.2,77.8 45.9,74.4 47.1,77.6 49.7,75.2 
	47.8,78.2 51.4,78.7 47.9,79.2 49.7,82.2 47.1,79.8 "/>
<polygon class="st1" points="11.3,17.9 8.7,22 13.4,22.8 8.7,23.2 11,27.5 7.6,24.1 5.8,28.4 6.4,23.8 1.7,25 5.9,22.6 2,19.7 
	6.4,21.4 6.2,16.6 7.7,21.2 "/>
<polygon class="st1" points="77.9,83.6 73.1,80.1 71.8,85.8 71.5,79.9 66.2,82.4 70.7,78.6 65.4,75.9 71.3,77.1 70,71.3 72.7,76.6 
	76.5,72.1 74,77.4 80,77.5 74.2,79 "/>
<path class="st1" d="M21.3,8.7c0.5,1.2,2,2.9,4.4,5.8C23.9,11.2,23,9.1,22,8.2c0.9,0.3,2.6,0.4,5,0.7c-2.4-0.8-3.9-1.3-5-1.5
	c1.2-0.5,2.9-2,5.8-4.4c-3.3,1.7-5.4,2.6-6.3,3.6c0.3-0.9,0.4-2.6,0.7-5c-0.8,2.4-1.3,3.9-1.5,5c-0.5-1.2-2-2.9-4.4-5.8
	c1.7,3.3,2.6,5.4,3.6,6.3c-0.9-0.3-2.6-0.4-5-0.7c2.4,0.8,3.9,1.3,5,1.5c-1.2,0.5-2.9,2-5.8,4.4c3.3-1.7,5.4-2.6,6.3-3.6
	c-0.3,0.9-0.4,2.6-0.7,5C20.7,11.2,21.2,9.7,21.3,8.7z M21.1,7.7L21.1,7.7L21.1,7.7L21.1,7.7L21.1,7.7L21.1,7.7
	C21.2,7.7,21.2,7.7,21.1,7.7C21.2,7.7,21.2,7.7,21.1,7.7C21.2,7.7,21.2,7.7,21.1,7.7C21.2,7.7,21.2,7.7,21.1,7.7
	C21.2,7.7,21.2,7.7,21.1,7.7C21.2,7.7,21.2,7.7,21.1,7.7C21.2,7.7,21.2,7.7,21.1,7.7C21.2,7.7,21.2,7.7,21.1,7.7L21.1,7.7L21.1,7.7
	L21.1,7.7z"/>
<path class="st1" d="M52.2,64.4c0.5,1.2,2,2.9,4.4,5.8c-1.7-3.3-2.6-5.4-3.6-6.3c0.9,0.3,2.6,0.4,5,0.7c-2.4-0.8-3.9-1.3-5-1.5
	c1.2-0.5,2.9-2,5.8-4.4c-3.3,1.7-5.4,2.6-6.3,3.6c0.3-0.9,0.4-2.6,0.7-5c-0.8,2.4-1.3,3.9-1.5,5c-0.5-1.2-2-2.9-4.4-5.8
	c1.7,3.3,2.6,5.4,3.6,6.3c-0.9-0.3-2.6-0.4-5-0.7c2.4,0.8,3.9,1.3,5,1.5c-1.2,0.5-2.9,2-5.8,4.4c3.3-1.7,5.4-2.6,6.3-3.6
	c-0.3,0.9-0.4,2.6-0.7,5C51.6,67,52.1,65.5,52.2,64.4z M52,63.4L52,63.4L52,63.4L52,63.4L52,63.4L52,63.4
	C52.1,63.4,52.1,63.4,52,63.4C52.1,63.4,52.1,63.4,52,63.4C52.1,63.4,52.1,63.4,52,63.4C52.1,63.4,52.1,63.4,52,63.4
	C52.1,63.4,52.1,63.4,52,63.4C52.1,63.4,52.1,63.4,52,63.4C52.1,63.4,52.1,63.4,52,63.4C52.1,63.4,52.1,63.4,52,63.4L52,63.4
	L52,63.4L52,63.4z"/>
<path class="st1" d="M32.1,46.2c0.6,1.5,2.4,3.6,5.4,7.2c-2.1-4.1-3.3-6.7-4.5-7.9c1.2,0.3,3.2,0.5,6.3,0.9c-3-1-4.9-1.6-6.2-1.8
	c1.5-0.6,3.6-2.4,7.2-5.4c-4.1,2.1-6.7,3.3-7.9,4.5c0.3-1.2,0.5-3.2,0.9-6.3c-1,3-1.6,4.9-1.8,6.2c-0.6-1.5-2.4-3.6-5.4-7.2
	c2.1,4.1,3.3,6.7,4.5,7.9c-1.2-0.3-3.2-0.5-6.3-0.9c3,1,4.9,1.6,6.2,1.8c-1.5,0.6-3.6,2.4-7.2,5.4c4.1-2.1,6.7-3.3,7.9-4.5
	c-0.3,1.2-0.5,3.2-0.9,6.3C31.3,49.4,31.9,47.5,32.1,46.2z M31.8,45L31.8,45L31.8,45L31.8,45L31.8,45L31.8,45
	C31.9,45,31.9,45,31.8,45C31.9,45,31.9,45,31.8,45C31.9,45,31.9,45,31.8,45C31.9,45,31.9,45,31.8,45C31.9,45,31.9,45,31.8,45
	C31.9,45,31.9,45,31.8,45C31.9,45,31.9,45,31.8,45C31.9,45,31.9,45,31.8,45L31.8,45L31.8,45L31.8,45z"/>
<polyline class="st0" points="21.1,7.4 36.7,28.9 44,51 52,63.4 44.1,51.2 31.8,44.8 6.8,22.7 "/>
<polyline class="st0" points="46.9,78.8 42.2,68.4 52,63.4 74.6,67 72.8,77.7 " />
</svg>
