<?xml version="1.0" encoding="utf-8"?>
<!-- Generator: Adobe Illustrator 24.3.0, SVG Export Plug-In . SVG Version: 6.00 Build 0)  -->
<svg version="1.1" id="Layer_1" xmlns="http://www.w3.org/2000/svg" xmlns:xlink="http://www.w3.org/1999/xlink" x="0px" y="0px"
	 viewBox="0 0 132 125" style="enable-background:new 0 0 132 125;" xml:space="preserve">
<style type="text/css">
	.st0{fill-rule:evenodd;clip-rule:evenodd;fill:#445C70;}
	.st1{opacity:0.8;clip-path:url(#SVGID_2_);}
	.st2{fill:#ABC6C8;}
	.st3{clip-path:url(#SVGID_2_);}
	.st4{fill:#9DD8B4;}
	.st5{fill:#96A0C5;}
	.st6{fill:none;stroke:#FFFFFF;stroke-width:4.275;}
	.st7{fill:#D86049;}
	.st8{fill:#FFFFFF;}
</style>
<desc>Created with Sketch.</desc>
<g id="Oval-Copy">
	<circle id="path-1_1_" class="st0" cx="67.5" cy="62.5" r="62.5"/>
</g>
<g>
	<g>
		<defs>
			<path id="SVGID_1_" d="M11.6,62.5L11.6,62.5c0,30.9,25,55.9,55.9,55.9h0c30.9,0,55.9-25,55.9-55.9v0c0-30.9-25-55.9-55.9-55.9h0
				C36.6,6.6,11.6,31.6,11.6,62.5z"/>
		</defs>
		<use xlink:href="#SVGID_1_"  style="overflow:visible;fill:#D0E0E1;"/>
		<clipPath id="SVGID_2_">
			<use xlink:href="#SVGID_1_"  style="overflow:visible;"/>
		</clipPath>
		<g class="st1">
			<path class="st2" d="M97.4,56.6l5.4,5.4l14.8-14.8l-2.2-8.2L97.4,56.6z"/>
			<path class="st2" d="M48.1,86.3l15.2,15.2l5.1-5L53.1,81.3L48.1,86.3z"/>
			<path class="st2" d="M45.1,106.1L62,122.9l5.5-5.4l-16.9-16.9L45.1,106.1z"/>
			<polygon class="st2" points="30.1,105.5 35.4,110.8 48,98.1 42.7,92.8 			"/>
			<path class="st2" d="M81.2,72.9l5.4,5.4l7.8-7.7c0.7-0.7,1.1-1.7,1.1-2.7c0-1-0.4-2-1.1-2.7c-1.5-1.5-3.9-1.5-5.4,0L81.2,72.9z"
				/>
			
				<rect x="69.5" y="79.2" transform="matrix(0.7071 -0.7071 0.7071 0.7071 -36.355 78.3632)" class="st2" width="13.7" height="7.6"/>
			<path class="st2" d="M72.6,31.8l6.9,6.9l4.7-4.6l-9-4.8L72.6,31.8z"/>
			<path class="st2" d="M81.4,23.2l9,4.6l5.5-5.3l-9-4.8L81.4,23.2z"/>
		</g>
		<g class="st3">
			<polygon class="st4" points="79.5,44.4 91.6,56.6 106.5,41.1 90.9,32.9 			"/>
			<polygon class="st4" points="63.3,107.2 72.5,116.3 85.1,116.4 85.1,86 			"/>
			<polygon class="st4" points="12.9,50.9 13.4,109.1 19.2,109.1 52.9,75.7 28.7,50.9 			"/>
			<polygon class="st4" points="20.2,19.7 34.2,33.6 34.2,56.2 55.6,77.8 55.6,42.9 88.6,9.8 88.7,1.5 20.2,1.8 			"/>
		</g>
		<g class="st3">
			<path class="st5" d="M95.8,105.7l7.4,7.5c2.5,2.5,5.9,4,9.4,4l0,0c7.5,0.1,13.6-6,13.6-13.5l-0.1-14.9
				c-0.1-11.9-14.5-17.9-23-9.4l-7.3,7.4C90.7,92,90.7,100.5,95.8,105.7z"/>
			<path class="st5" d="M7.1,110.4l-5.2-5.2L34,73.2c4.4-4.4,6.8-10.2,6.8-16.4V46c0-8.2,3.2-15.8,9-21.6L70.8,3.3L76,8.5L54.9,29.6
				C50.5,34,48.1,39.8,48.1,46v10.7c0,8.2-3.2,15.8-9,21.6L7.1,110.4z"/>
		</g>
		<g class="st3">
			<path class="st6" d="M42,80.2"/>
			<path class="st6" d="M59.8,30.8"/>
			<line class="st6" x1="72.5" y1="116.3" x2="42.4" y2="86.1"/>
			<line class="st6" x1="19.4" y1="109.2" x2="52.9" y2="75.7"/>
			<line class="st6" x1="63.5" y1="107.2" x2="121.8" y2="48.9"/>
			<line class="st6" x1="85.1" y1="86" x2="85.1" y2="116.4"/>
			<line class="st6" x1="79.5" y1="44.4" x2="107.2" y2="16.8"/>
			<line class="st6" x1="102.9" y1="67.8" x2="66.8" y2="31.8"/>
			<line class="st6" x1="106.5" y1="41.1" x2="74.5" y2="24.3"/>
			<polyline class="st6" points="34.1,56.2 34.1,33.6 20.2,19.7 			"/>
			<line class="st6" x1="63.1" y1="85.2" x2="115.1" y2="33.1"/>
			<polyline class="st6" points="90.9,7.7 55.6,42.9 55.6,77.8 			"/>
			<polyline class="st6" points="74.3,96.4 28.8,50.9 12.9,50.9 			"/>
		</g>
	</g>
</g>
<g>
	<path class="st7" d="M67.5,64.6c0,0-6.2-8.8-6.2-12v-0.3c0-3.4,2.8-6.2,6.2-6.2c3.4,0,6.2,2.8,6.2,6.2v0.3
		C73.7,55.8,67.5,64.6,67.5,64.6z"/>
	<path class="st8" d="M67.5,55.7c-1.8,0-3.2-1.5-3.2-3.2c0-1.8,1.5-3.2,3.2-3.2c1.8,0,3.2,1.5,3.2,3.2
		C70.7,54.2,69.3,55.7,67.5,55.7z"/>
</g>
</svg>
