<?xml version="1.0" encoding="utf-8"?>
<!-- Generator: Adobe Illustrator 24.3.0, SVG Export Plug-In . SVG Version: 6.00 Build 0)  -->
<svg version="1.1" id="Layer_1" xmlns="http://www.w3.org/2000/svg" xmlns:xlink="http://www.w3.org/1999/xlink" x="0px" y="0px"
	 viewBox="0 0 132 125" style="enable-background:new 0 0 132 125;" xml:space="preserve">
<style type="text/css">
	.st0{fill:#01C6DA;}
	.st1{fill:none;}
	.st2{fill:#30363D;}
	.st3{fill:#484F59;}
	.st4{fill:#E67A61;}
	.st5{fill:#FF876C;}
	.st6{fill:#E1BF9C;}
	.st7{fill:#F0D0A9;}
	.st8{fill:#163551;}
	.st9{fill:#89695E;}
	.st10{fill:#FFB61C;}
	.st11{fill:#F7931E;}
	.st12{fill:#FFC549;}
	.st13{fill:#E57E22;}
	.st14{fill:#373735;}
	.st15{fill:#F39C11;}
</style>
<g id="Oval-Copy">
	<circle id="path-1_1_" class="st0" cx="67.5" cy="62.5" r="62.5"/>
</g>
<g>
	<path class="st1" d="M67.5,0C33,0,5,28,5,62.5c0,6.3,0.9,12.3,2.6,18c3.8-1.1,7.6-1.9,11.5-2.4c-0.2-1.7-0.5-3.4-0.7-5.1
		c-1.6-1-2.7-2.5-2.9-3.8c-0.2-1.6-0.4-3.2-0.6-4.8c-0.2,0.2-0.5,0.4-0.9,0.4c-0.8,0.1-1.4-0.5-1.5-1.2l-0.8-7.3
		c-0.1-0.8,0.5-1.4,1.2-1.5c0.3,0,0.6,0,0.8,0.2c-0.2-1.4-0.3-2.8-0.5-4.2c-0.1-1.9-1.1-7,2.6-10.3c1-0.9,2.1-1.7,3.4-2.3l0,0l0,0
		c0.8-0.4,1.6-0.6,2.4-0.9l0,0c0,0,0,0,0.1,0c1-0.3,2-0.5,3-0.6l0,0l0,0c0.5-0.1,1-0.1,1.5-0.1l0,0l0,0c4.5-0.2,9.1,1.1,11.9,3.9
		c3.7,3.3,2.7,8.4,2.6,10.3c-0.2,1.4-0.3,2.8-0.5,4.2c0.2-0.1,0.5-0.2,0.8-0.2c0.8,0.1,1.3,0.8,1.2,1.5l-0.8,7.3
		c-0.1,0.8-0.8,1.3-1.5,1.2c-0.3,0-0.6-0.2-0.9-0.4c-0.2,1.6-0.4,3.2-0.6,4.8c-0.1,1.3-1.3,2.8-2.8,3.8c-0.2,1.7-0.5,3.4-0.7,5.1
		c7.2,0.9,14.3,2.8,20.9,6c2.1,1.1,3.6,4,3.4,6.3c-0.3,2.6-0.5,5.1-0.8,7.7c-0.2,2.2-2.2,4.5-4.3,4.9c-10.1,1.6-20.6,2.3-31.1,2l0,0
		c0,0,0,0-0.1,0c-0.4,0-0.8,0-1.3,0c11.4,12.3,27.7,20,45.8,20C102,125,130,97,130,62.5S102,0,67.5,0z"/>
	<path class="st2" d="M20.7,37.7c0.4-0.1,0.7-0.2,1.1-0.4c-0.8,0.2-1.7,0.5-2.4,0.9c0.3-0.1,0.6-0.3,1-0.4
		C20.5,37.8,20.6,37.7,20.7,37.7z"/>
	<path class="st2" d="M23.4,37C23.4,37,23.5,37,23.4,37c0.6-0.1,1-0.2,1.5-0.2l0,0c-1,0.1-2,0.3-3,0.6H22
		C22.5,37.2,22.9,37.1,23.4,37z"/>
	<path class="st2" d="M21.7,105L21.7,105c0.4,0,0.9,0,1.3,0.1C22.5,105,22.1,105,21.7,105z"/>
	<path class="st2" d="M26.7,36.6c2.4,0,4.3,8.8,4.3,19.6s-1.9,19.6-4.3,19.6c-0.1,0-0.2,0-0.3-0.1V82c1.9,2.8,3.7,9.6,4.6,17.7
		c0.2,1.8,0.3,3.6,0.4,5.3c-2.8,0.1-5.6,0.1-8.3,0c10.5,0.3,21-0.5,31.4-2.1c2.1-0.4,4-2.6,4.3-4.9c0.3-2.6,0.5-5.1,0.8-7.7
		c0.2-2.2-1.3-5.1-3.4-6.3c-6.6-3.1-13.7-5.1-20.9-6c0.2-1.7,0.5-3.4,0.7-5.1c1.6-1,2.7-2.5,2.8-3.8c0.2-1.6,0.4-3.2,0.6-4.8
		c0.2,0.2,0.5,0.4,0.9,0.4c0.8,0.1,1.4-0.5,1.5-1.2l0.8-7.3c0.1-0.8-0.5-1.4-1.2-1.5c-0.3,0-0.6,0-0.8,0.2c0.2-1.4,0.3-2.8,0.5-4.2
		c0.1-1.9,1.1-7-2.6-10.3c-2.8-2.8-7.4-4-11.9-3.9v0.1C26.5,36.7,26.6,36.6,26.7,36.6z"/>
	<path class="st2" d="M17.5,39.3c0.2-0.1,0.4-0.3,0.6-0.4c0.2-0.1,0.5-0.3,0.7-0.4c0.2-0.1,0.3-0.2,0.5-0.3
		c-1.3,0.6-2.5,1.4-3.4,2.3c0.3-0.3,0.7-0.6,1-0.9C17.2,39.5,17.4,39.4,17.5,39.3z"/>
	<path class="st2" d="M24.9,36.8c0.5-0.1,1-0.1,1.5-0.1C25.9,36.7,25.4,36.7,24.9,36.8z"/>
	<path class="st3" d="M23,105L23,105c2.8,0.1,5.6,0.1,8.4,0c-0.1-1.7-0.2-3.5-0.4-5.3c-0.9-8.1-2.7-15-4.6-17.7v-6.2
		c0.1,0,0.2,0.1,0.3,0.1c2.4,0,4.3-8.8,4.3-19.6s-1.9-19.6-4.3-19.6c-0.1,0-0.2,0-0.3,0.1v-0.1l0,0l0,0c-0.5,0-1,0.1-1.5,0.1l0,0
		l0,0l0,0c-0.5,0.1-1,0.1-1.4,0.2h-0.1c-0.4,0.1-0.9,0.2-1.3,0.3H22c0,0,0,0-0.1,0l0,0c-0.4,0.1-0.8,0.2-1.1,0.4
		c-0.1,0-0.2,0.1-0.3,0.1c-0.3,0.1-0.6,0.3-1,0.4l0,0l0,0c-0.2,0.1-0.3,0.2-0.5,0.3c-0.3,0.1-0.5,0.3-0.7,0.4
		c-0.2,0.1-0.4,0.3-0.6,0.4c-0.2,0.1-0.3,0.2-0.5,0.3c-0.4,0.3-0.7,0.6-1,0.9c-3.7,3.3-2.7,8.4-2.6,10.3c0.2,1.4,0.3,2.8,0.5,4.2
		c-0.2-0.1-0.5-0.2-0.8-0.2c-0.8,0.1-1.3,0.8-1.2,1.5l0.8,7.3c0.1,0.8,0.8,1.3,1.5,1.2c0.3,0,0.6-0.2,0.9-0.4
		c0.2,1.6,0.4,3.2,0.6,4.8c0.1,1.3,1.3,2.8,2.9,3.8c0.2,1.7,0.5,3.4,0.7,5.1c-3.9,0.5-7.7,1.3-11.5,2.4c2.8,9.3,7.6,17.6,14,24.5
		C22.1,105,22.5,105,23,105L23,105z"/>
</g>
<g>
	<path class="st1" d="M100.3,105L100.3,105C100.2,105,100.2,105,100.3,105c-4-0.1-7.8-0.3-11.7-0.7c-0.1,0-0.2,0-0.2,0l0,0
		c-1.7-0.2-3.4-0.3-5.1-0.6l0,0c-0.2,0-0.4-0.1-0.6-0.1c-1.8-0.2-3.6-0.5-5.4-0.8c-2.1-0.4-4.1-2.6-4.3-4.9
		c-0.3-2.6-0.5-5.1-0.8-7.7c-0.2-2.2,1.3-5.1,3.4-6.3c6.6-3.1,13.7-5.1,20.8-6c-0.2-1.7-0.5-3.4-0.7-5.1c-1.6-1-2.7-2.5-2.9-3.8
		c-0.2-1.6-0.4-3.2-0.6-4.8c-0.2,0.2-0.5,0.4-0.9,0.4c-0.8,0.1-1.4-0.5-1.5-1.2L89,56.1c-0.1-0.8,0.5-1.4,1.2-1.5
		c0.3,0,0.6,0,0.8,0.2c-0.2-1.4-0.3-2.8-0.5-4.2c-0.1-1.9-1.1-7,2.6-10.3c1-0.9,2.1-1.7,3.4-2.3l0,0l0,0c0.8-0.4,1.6-0.6,2.4-0.9
		l0,0c0,0,0,0,0.1,0c1-0.3,2-0.5,3-0.6l0,0l0,0c0.5-0.1,1-0.1,1.5-0.1l0,0l0,0c4.5-0.2,9.1,1.1,11.9,3.9c3.7,3.3,2.7,8.4,2.6,10.3
		c-0.2,1.4-0.3,2.8-0.5,4.2c0.2-0.1,0.5-0.2,0.8-0.2c0.8,0.1,1.3,0.8,1.2,1.5l-0.8,7.3c-0.1,0.8-0.8,1.3-1.5,1.2
		c-0.3,0-0.6-0.2-0.9-0.4c-0.2,1.6-0.4,3.2-0.6,4.8c-0.1,1.3-1.3,2.8-2.8,3.8c-0.2,1.7-0.5,3.4-0.7,5.1c5,0.6,9.9,1.7,14.6,3.4
		c1.9-6,3-12.4,3-19C130,28,102,0,67.5,0S5,28,5,62.5S33,125,67.5,125c18.2,0,34.5-7.8,46-20.1C109.1,105.1,104.7,105.1,100.3,105z"
		/>
	<path class="st4" d="M98,37.7c0.4-0.1,0.7-0.2,1.1-0.4c-0.8,0.2-1.7,0.5-2.4,0.9c0.3-0.1,0.6-0.3,1-0.4
		C97.7,37.8,97.8,37.7,98,37.7z"/>
	<path class="st4" d="M77.2,102.9c1.8,0.3,3.6,0.5,5.4,0.8c-0.1,0-0.1,0-0.2,0C80.7,103.4,78.9,103.2,77.2,102.9z"/>
	<path class="st4" d="M113.2,73c1.6-1,2.7-2.5,2.8-3.8c0.2-1.6,0.4-3.2,0.6-4.8c0.2,0.2,0.5,0.4,0.9,0.4c0.8,0.1,1.4-0.5,1.5-1.2
		l0.8-7.3c0.1-0.8-0.5-1.4-1.2-1.5c-0.3,0-0.6,0-0.8,0.2c0.2-1.4,0.3-2.8,0.5-4.2c0.1-1.9,1.1-7-2.6-10.3c-2.8-2.8-7.4-4-11.9-3.9
		v0.1c0.1,0,0.2-0.1,0.3-0.1c2.4,0,4.3,8.8,4.3,19.6s-1.9,19.6-4.3,19.6c-0.1,0-0.2,0-0.3-0.1V82c1.9,2.8,3.7,9.6,4.6,17.7
		c0.2,1.8,0.3,3.6,0.4,5.3c-2.8,0.1-5.6,0.1-8.3,0c4.4,0.1,8.8,0,13.2-0.2c6.1-6.6,10.8-14.6,13.6-23.3c-4.7-1.7-9.6-2.8-14.6-3.4
		C112.7,76.4,112.9,74.7,113.2,73z"/>
	<path class="st4" d="M94.8,39.3c0.2-0.1,0.4-0.3,0.6-0.4c0.2-0.1,0.5-0.3,0.7-0.4c0.2-0.1,0.3-0.2,0.5-0.3
		c-1.3,0.6-2.5,1.4-3.4,2.3c0.3-0.3,0.7-0.6,1-0.9C94.4,39.5,94.6,39.4,94.8,39.3z"/>
	<path class="st4" d="M100.6,37C100.7,37,100.7,37,100.6,37c0.6-0.1,1-0.2,1.5-0.2l0,0c-1,0.1-2,0.3-3,0.6h0.1
		C99.8,37.2,100.2,37.1,100.6,37z"/>
	<path class="st4" d="M88.6,104.4c3.8,0.4,7.7,0.6,11.6,0.7c-3.7-0.1-7.4-0.3-11.2-0.6C88.9,104.4,88.8,104.4,88.6,104.4z"/>
	<path class="st4" d="M88.4,104.3c-1.7-0.2-3.4-0.3-5.1-0.6C85,104,86.7,104.2,88.4,104.3z"/>
	<path class="st4" d="M102.2,36.8c0.5-0.1,1-0.1,1.5-0.1C103.2,36.7,102.7,36.7,102.2,36.8z"/>
	<path class="st5" d="M108.6,105c-0.1-1.7-0.2-3.5-0.4-5.3c-0.9-8.1-2.7-15-4.6-17.7v-6.2c0.1,0,0.2,0.1,0.3,0.1
		c2.4,0,4.3-8.8,4.3-19.6s-1.9-19.6-4.3-19.6c-0.1,0-0.2,0-0.3,0.1v-0.1l0,0l0,0c-0.5,0-1,0.1-1.5,0.1l0,0l0,0l0,0
		c-0.5,0.1-1,0.1-1.4,0.2h-0.1c-0.4,0.1-0.9,0.2-1.3,0.3h-0.1c0,0,0,0-0.1,0l0,0c-0.4,0.1-0.8,0.2-1.1,0.4c-0.1,0-0.2,0.1-0.3,0.1
		c-0.3,0.1-0.6,0.3-1,0.4l0,0l0,0c-0.2,0.1-0.3,0.2-0.5,0.3c-0.3,0.1-0.5,0.3-0.7,0.4c-0.2,0.1-0.4,0.3-0.6,0.4
		c-0.2,0.1-0.3,0.2-0.5,0.3c-0.4,0.3-0.7,0.6-1,0.9c-3.7,3.3-2.7,8.4-2.6,10.3c0.2,1.4,0.3,2.8,0.5,4.2c-0.2-0.1-0.5-0.2-0.8-0.2
		c-0.8,0.1-1.3,0.8-1.2,1.5l0.8,7.3c0.1,0.8,0.8,1.3,1.5,1.2c0.3,0,0.6-0.2,0.9-0.4c0.2,1.6,0.4,3.2,0.6,4.8
		c0.1,1.3,1.3,2.8,2.9,3.8c0.2,1.7,0.5,3.4,0.7,5.1c-7.2,0.9-14.2,2.8-20.8,6c-2.1,1.1-3.6,4-3.4,6.3c0.2,2.6,0.5,5.1,0.8,7.7
		c0.2,2.2,2.2,4.5,4.3,4.9c1.8,0.3,3.5,0.5,5.3,0.8c0.1,0,0.1,0,0.2,0c0.2,0,0.4,0.1,0.6,0.1l0,0c1.7,0.2,3.4,0.4,5.1,0.6l0,0
		c0.1,0,0.2,0,0.2,0c0.1,0,0.3,0,0.4,0c3.7,0.3,7.4,0.6,11.2,0.6c0,0,0,0,0.1,0l0,0C103.1,105.1,105.9,105.1,108.6,105z"/>
</g>
<desc>Created with Sketch.</desc>
<g>
	<path class="st1" d="M23.2,99.2c0-6.3,4.7-11.9,11.8-13.9l4.3-1.2l0,0l4.3-1.2l2.6-0.7l0,0l0,0h0.1l8.3-2.3l0,0
		c0,0.1,0.1,0.2,0.1,0.3l3.5-0.9l0,0v-2.8l-0.1-0.1c-1.1-0.8-2.2-1.7-3.2-2.8c-0.1-0.1-0.2-0.2-0.2-0.3c-2.9-3.2-5.4-7.5-6.9-12.4
		v-0.5l-0.5-8.2l0,0l0,0c-0.1,0.2-0.2,0.3-0.4,0.3c-0.1,0.1-0.2,0.1-0.3,0.1c-1,0-1.7-2.2-1.7-5c0-2.7,0.8-5,1.7-5
		c0.1,0,0.1,0,0.2,0c0.2,0.1,0.3,0.2,0.5,0.3l0,0c0-1.1,0-2.4,0-3.7l0,0c-2.1-1.5-3.3-3.3-3.4-5.2l0,0l0,0l0,0
		c0-0.4,0.3-0.8,0.7-0.8c0.1,0,0.3,0,0.4,0c0.1,0,0.1,0,0.2-0.1c0.1-0.1,0.2-0.2,0.2-0.3c0-0.3,0.1-0.6,0.2-1.1
		c0.1-0.5,0.2-1.2,0.3-2c0.1-0.6,0.2-1.2,0.3-1.9c0.6-3.1,1.4-6.6,2.2-8c1.6-2.8,4.2-6,7.5-7.5c1.3-0.6,2-0.9,2.3-1.1
		c0.3-0.1,0.4-0.2,0.4-0.2c0.1-0.1,0,0,0,0s0-0.4,0.4-0.6c0,0,0,0,0.1,0c0.4-0.2,1.8-0.5,2-0.6s0.5-1,0.8-1.2s3.6-0.5,5.7-0.3
		c2.1-0.1,5.3,0.2,5.7,0.3s0.7,1.1,0.8,1.2c0.2,0.1,1.5,0.4,2,0.5h0.1c0.3,0.2,0.4,0.6,0.4,0.6s-0.1,0,0,0s0.2,0.1,0.4,0.2
		c0.4,0.2,1.1,0.5,2.3,1.1c3.3,1.5,5.9,4.7,7.5,7.5c0.8,1.4,1.6,4.9,2.2,8c0.1,0.7,0.2,1.3,0.3,1.9c0.1,0.7,0.2,1.4,0.3,2
		c0.1,0.5,0.1,0.9,0.2,1.1c0,0.1,0.1,0.2,0.2,0.3c0.1,0,0.1,0,0.2,0c0.2,0,0.4,0,0.6,0.1c0.3,0,0.5,0.2,0.4,0.5l0,0
		c0,0.1,0,0.1,0,0.2v0.1c-0.1,1.8-1.1,3.5-3,5c0,1.3,0,2.6,0,3.9l0,0c0.1-0.2,0.1-0.3,0.1-0.2h0.1c0.6,0,1.1,0.9,1.4,2.2
		c0.2,0.8,0.3,1.8,0.3,2.8c0,2.7-0.8,5-1.7,5c-0.1,0-0.2,0-0.2-0.1c-0.1-0.1-0.1-0.3-0.2-0.5l0,0l-1,8.7v0.1
		c-1.6,5-3.9,9.2-6.8,12.4l0,0c0,0-0.3,0.3-0.4,0.4c-1,1-2,1.9-3,2.7l0,0v3.1l0,0l0,0l3.7,1c0.1-0.2,0.1-0.5,0.2-0.7l7,2l0.9,0.3
		l6.1,1.7l0.2,0.1l0.6,0.2l0,0l4.9,1.4c7,2,11.8,7.6,11.8,13.9l0.6,6.3C123.4,94.3,130,79.2,130,62.5C130,28,102,0,67.5,0
		S5,28,5,62.5c0,16.9,6.7,32.2,17.6,43.5L23.2,99.2z"/>
	<path class="st1" d="M86.9,45.9L86.9,45.9L86.9,45.9L86.9,45.9L86.9,45.9L86.9,45.9z"/>
	<path class="st6" d="M67.7,85.7l9-6.2v-3.1l-0.1,0.1c-2.8,2-5.9,3-9.1,3c-3.3,0-6.4-1.1-9.2-3.1l0,0v2.8l0,0L67.7,85.7z"/>
	<path class="st7" d="M47.2,45.6c0,0,0-1.1,0-2.7c-0.1-0.1-0.3-0.2-0.5-0.3c-0.1,0-0.1,0-0.2,0c-1,0-1.7,2.2-1.7,5
		c0,2.7,0.8,5,1.7,5c0.1,0,0.2,0,0.3-0.1s0.3-0.2,0.4-0.3l-0.1-2C47.1,50.1,47.2,47.9,47.2,45.6z"/>
	<path class="st7" d="M87.9,52c0.1,0.2,0.1,0.4,0.2,0.5c0.1,0,0.2,0.1,0.2,0.1c0.9,0,1.7-2.2,1.7-5c0-1-0.1-2-0.3-2.8
		c-0.3-1.3-0.8-2.2-1.4-2.2h-0.1c0-0.1-0.1,0-0.1,0.2C88.1,47.4,88,51.4,87.9,52L87.9,52z"/>
	<path class="st7" d="M49.5,40.6L49.5,40.6c-0.6,1.3-1.2,2.8-1.5,4.2l0,0c0,0.1-0.1,0.3-0.1,0.4c0,0,0,0.2,0.1,0.6l0,0l0,0
		c0.4,2.3,1.7,10,1.7,10c0.7,4.7,3,9,6.4,11.8c0.2-0.3,0.4-2.1,0.6-2.4c1-1.1,3.6-2.1,6.3-2.7h8.8c2.9,0.6,6.2,1.7,6.8,3.1
		c0.1,0.1,0.2,1.9,0.3,2v-0.1c3.6-3,6-7.3,6.8-12.2c0,0,1.3-8.9,1.4-9.5l0,0l-1.9-5c-4.3,2.1-10.6,3.4-17.5,3.4
		C60.3,44.3,53.8,42.9,49.5,40.6z"/>
	<path class="st6" d="M58.3,85.5L58.3,85.5c1.5,1.2,3.3,2.1,5.2,2.6l0,0c2.7,0.7,5.6,0.7,8.3,0l0,0c1.8-0.5,3.5-1.3,4.9-2.4l0,0
		c1.7-1.3,3-3,3.7-5.2l-3.7-1l0,0l0,0l-9,6.2l-9.4-6.5l0,0l0,0l-3.5,0.9C55.4,82.4,56.7,84.2,58.3,85.5z"/>
	<path class="st8" d="M47.5,103.2h39.7l1.3-20.4v-0.7l6.1,1.7l0.2,0.1l-0.2-0.1l-6.1-1.7l-0.9-0.3l-7-2c-0.1,0.2-0.1,0.5-0.2,0.7
		c-0.7,2.2-2,3.9-3.7,5.2l0,0c-1.4,1.1-3.1,1.9-4.9,2.4l0,0c-2.7,0.7-5.6,0.7-8.3,0l0,0c-1.9-0.5-3.7-1.4-5.2-2.6l0,0
		c-1.6-1.3-2.9-3.1-3.5-5.3c0-0.1-0.1-0.2-0.1-0.3l0,0l-8.3,2.3h-0.1l0,0v0.2L47.5,103.2z"/>
	<path class="st8" d="M39.3,103.2h1.2l-0.8-13l-0.4-5.9v-0.1l0,0l4.3-1.2l-4.3,1.2l0,0L35,85.4c-7,2-11.8,7.6-11.8,13.9l-0.6,6.7
		c4.4,4.6,9.5,8.5,15.1,11.5v-12.7C37.7,103.9,38.4,103.2,39.3,103.2z"/>
	<path class="st8" d="M100.4,85.4L95.5,84v0.7l-0.6,10l-0.5,8.4h0.5c0.8,0,1.5,0.7,1.6,1.5l0.5,12.9c5.9-3.2,11.2-7.3,15.8-12.1
		l-0.6-6.3C112.2,92.9,107.4,87.4,100.4,85.4z"/>
	<path class="st9" d="M67.4,79.5c3.3,0,6.4-1.1,9.1-3l0.1-0.1l0,0c1.1-0.8,2.1-1.7,3-2.7c0.1-0.1,0.4-0.4,0.4-0.4l0,0
		c2.9-3.2,5.3-7.5,6.8-12.4v-0.1l1-8.7l0,0V52c0.1-0.5,0.1-4.5,0.2-9.1l0,0c0-1.3,0-2.6,0-3.9c-0.9,0.7-1.9,1.3-3.2,1.9l1.9,5l0,0
		l0,0l0,0l0,0c0,0.6-1.4,9.5-1.4,9.5c-0.8,4.9-3.2,9.2-6.8,12.2v0.1c-0.1-0.1-0.2-1.9-0.3-2c-0.6-1.4-3.9-2.5-6.8-3.1h-8.8
		c-2.6,0.6-5.3,1.5-6.3,2.7c-0.2,0.2-0.4,2.1-0.6,2.4c-3.4-2.8-5.7-7.1-6.4-11.8c0,0-1.3-7.7-1.7-10l0,0l0,0
		c-0.1-0.4-0.1-0.6-0.1-0.6c0-0.1,0.1-0.3,0.1-0.4l0,0c0.4-1.4,0.9-2.8,1.5-4.2l0,0c-0.8-0.4-1.6-0.9-2.3-1.4l0,0c0,1.4,0,2.7,0,3.7
		l0,0c0,1.6,0,2.7,0,2.7c0,2.3-0.1,4.4-0.1,4.4l0.1,2l0,0l0,0l0.5,8.2v0.5c1.6,5,4,9.2,6.9,12.4c0.1,0.1,0.2,0.2,0.2,0.3
		c1,1.1,2.1,2,3.2,2.8l0.1,0.1l0,0C61,78.4,64.1,79.5,67.4,79.5z M67.5,66.1c4.3,0,7.8,1.2,7.8,2.7c0,1.2-2.3,2.3-5.5,2.6v2.4h-4.4
		v-2.4c-3.3-0.3-5.8-1.4-5.8-2.6C59.7,67.3,63.2,66.1,67.5,66.1z"/>
	<path class="st7" d="M65.4,71.4L65.4,71.4c0-1.2,0.9-2,1.9-2h0.5c1.1,0,1.9,0.9,1.9,1.9v0.1c3.2-0.3,5.5-1.4,5.5-2.6
		c0-1.5-3.5-2.7-7.8-2.7s-7.8,1.2-7.8,2.7C59.7,70.1,62.1,71.1,65.4,71.4z"/>
	<path class="st9" d="M67.8,69.4h-0.5c-1.1,0-1.9,0.9-1.9,1.9v0.1v2.4h4.4v-2.4v-0.1C69.8,70.2,68.9,69.4,67.8,69.4z"/>
	<path class="st10" d="M66.9,38.7c0.1,0,0.2,0,0.2,0c0.1,0,0.2,0,0.3,0c-0.4,0-0.8,0-1.2,0C66.5,38.7,66.7,38.7,66.9,38.7z"/>
	<path class="st10" d="M67.5,38.7c0.1,0,0.3,0,0.4,0c0.3,0,0.5,0,0.7,0C68.2,38.7,67.9,38.7,67.5,38.7L67.5,38.7z"/>
	<path class="st10" d="M58.4,38v-9.2c0-1.1,0.1-2.7,0.4-4.6c0.7-6,2.2-14.5,2.2-14.5c-0.2,0.1-1.5,0.4-2,0.6l-0.6,17.9l-0.3-17
		c-0.4,0.2-1.1,0.5-2.3,1.1c-3.3,1.5-5.9,4.7-7.5,7.5c-0.8,1.4-1.6,5-2.2,8c-0.1,0.7-0.2,1.3-0.3,1.9c-0.1,0.7-0.2,1.4-0.3,2
		c-0.1,0.5-0.1,0.9-0.2,1.1c0,0.1-0.1,0.2-0.2,0.3C47.2,35.2,52.1,37.1,58.4,38z"/>
	<path class="st10" d="M76.2,24.2c0.2,1.9,0.4,3.5,0.4,4.6V38c6.3-1,11.2-2.8,13.4-4.9c-0.1-0.1-0.2-0.2-0.2-0.3
		c0-0.3-0.1-0.6-0.2-1.1c-0.1-0.5-0.2-1.2-0.3-2c-0.1-0.6-0.2-1.2-0.3-1.9c-0.6-3.1-1.4-6.6-2.2-8c-1.6-2.8-4.2-6-7.5-7.5
		c-1.2-0.6-1.9-0.9-2.3-1.1l-0.3,17l-0.6-17.9c-0.4-0.2-1.8-0.5-2-0.5C74,9.8,75.4,18.2,76.2,24.2z"/>
	<path class="st11" d="M58.4,28.2L59,10.3c0,0,0,0-0.1,0c-0.3,0.2-0.4,0.6-0.4,0.6s0.1,0,0,0c0,0-0.2,0.1-0.4,0.2L58.4,28.2z"/>
	<path class="st12" d="M58.8,24.2c-0.2,1.9-0.4,3.5-0.4,4.6V38c2.4,0.4,5.1,0.6,7.9,0.7c0.4,0,0.8,0,1.2,0l0,0c0.4,0,0.8,0,1.1,0
		c2.8-0.1,5.5-0.3,7.9-0.7v-9.2c0-1.1-0.1-2.7-0.4-4.6C75.4,18.2,74,9.8,74,9.8c-0.2-0.1-0.5-1-0.8-1.2s-3.6-0.5-5.7-0.3
		c-2.1-0.1-5.3,0.2-5.7,0.3S61.1,9.7,61,9.8C61,9.8,59.5,18.2,58.8,24.2z"/>
	<path class="st11" d="M76.5,28.2l0.3-17c-0.3-0.1-0.4-0.2-0.4-0.2c-0.1-0.1,0,0,0,0s0-0.4-0.4-0.6c0,0,0,0-0.1,0L76.5,28.2z"/>
	<path class="st11" d="M49.5,40.6c4.3,2.2,10.8,3.7,18,3.7c6.9,0,13.2-1.3,17.5-3.4c1.2-0.6,2.3-1.2,3.2-1.9c1.9-1.5,3-3.2,3-5v-0.1
		c0-0.1,0-0.1,0-0.2l0,0c0-0.3-0.2-0.5-0.4-0.5c-0.2,0-0.5,0-0.6-0.1c-0.1,0-0.1,0-0.2,0c-2.2,2.1-7.1,4-13.4,4.9
		c-2.5,0.4-5.1,0.6-7.9,0.7c-0.2,0-0.5,0-0.7,0c-0.1,0-0.3,0-0.4,0l0,0l0,0c-0.1,0-0.2,0-0.3,0c-0.1,0-0.2,0-0.2,0
		c-0.2,0-0.4,0-0.6,0c-2.8-0.1-5.4-0.3-7.9-0.7c-6.3-1-11.2-2.8-13.3-4.9c-0.1,0-0.1,0.1-0.2,0.1c-0.1,0-0.2,0-0.4,0
		c-0.4,0-0.7,0.4-0.7,0.8l0,0l0,0l0,0c0.1,1.9,1.3,3.7,3.4,5.2C47.9,39.7,48.6,40.2,49.5,40.6z"/>
	<path class="st13" d="M94.9,103.2h-0.5l-0.4,5.9c0,0.2-0.1,0.4-0.2,0.5L91,113c-0.4,0.5-1.2,0.4-1.5-0.1l-2.4-3.7l0,0
		c-0.1-0.2-0.2-0.4-0.1-0.6l0.3-5.4H47.5l0.2,2.7l0.2,2.8c0,0.2,0,0.4-0.1,0.6l-2.4,3.7c-0.3,0.5-1.1,0.6-1.5,0.1l-2.8-3.4
		c-0.1-0.2-0.2-0.3-0.2-0.5l-0.4-5.9h-1.2c-0.9,0-1.6,0.7-1.6,1.6v12.7c4.3,2.3,8.9,4.2,13.7,5.4v-7.7l0,0l0,0h32.5l0,0l0,0v7.6
		c4.6-1.2,8.9-3,13-5.2l-0.5-12.9C96.4,103.9,95.7,103.2,94.9,103.2z"/>
	<path class="st11" d="M88.5,82.1v0.7l-1.3,20.4l-0.3,5.4c0,0.2,0,0.4,0.1,0.6l0,0l2.4,3.7c0.3,0.5,1.1,0.6,1.5,0.1l2.8-3.4
		c0.1-0.2,0.2-0.3,0.2-0.5l0.4-5.9l0.5-8.4l0.6-10v-0.7l0,0l-0.6-0.2l-0.2-0.1L88.5,82.1z M90.4,109c-0.8-0.1-1.4-0.8-1.4-1.6
		s0.8-1.4,1.6-1.4c0.8,0.1,1.4,0.8,1.4,1.6S91.3,109,90.4,109z"/>
	<path class="st14" d="M90.6,106c-0.8-0.1-1.5,0.6-1.6,1.4s0.6,1.5,1.4,1.6s1.5-0.6,1.6-1.4S91.4,106.1,90.6,106z"/>
	<path class="st11" d="M39.3,84.2L39.3,84.2l0.4,6l0.8,13l0.4,5.9c0,0.2,0.1,0.4,0.2,0.5l2.8,3.4c0.4,0.5,1.2,0.4,1.5-0.1l2.4-3.7
		c0.1-0.2,0.2-0.4,0.1-0.6l-0.2-2.8l-0.2-2.7l-1.3-20.8v-0.2l0,0L43.6,83L39.3,84.2L39.3,84.2z M44.3,109c-0.8,0.1-1.5-0.6-1.6-1.4
		s0.6-1.5,1.4-1.6s1.5,0.6,1.6,1.4S45.2,108.9,44.3,109z"/>
	<path class="st14" d="M44.2,106c-0.8,0.1-1.4,0.8-1.4,1.6s0.8,1.4,1.6,1.4s1.4-0.8,1.4-1.6S45,106,44.2,106z"/>
	<path class="st10" d="M83.9,115.2l-16.2,7.9l-16.2-7.9l0,0v7.7c5.1,1.4,10.5,2.1,16,2.1c5.7,0,11.2-0.8,16.4-2.2V115.2L83.9,115.2z
		"/>
	<path class="st15" d="M67.7,123.1l16.2-7.9l0,0H51.5l0,0L67.7,123.1z M67.7,121.4c-0.6,0-1.2-0.5-1.2-1.2s0.5-1.2,1.2-1.2
		c0.6,0,1.2,0.5,1.2,1.2S68.3,121.4,67.7,121.4z"/>
	<path class="st14" d="M67.7,119.1c-0.6,0-1.2,0.5-1.2,1.2s0.5,1.2,1.2,1.2c0.6,0,1.2-0.5,1.2-1.2S68.3,119.1,67.7,119.1z"/>
</g>
</svg>
