<?xml version="1.0" encoding="utf-8"?>
<!-- Generator: Adobe Illustrator 24.3.0, SVG Export Plug-In . SVG Version: 6.00 Build 0)  -->
<svg version="1.1" id="Layer_1" xmlns="http://www.w3.org/2000/svg" xmlns:xlink="http://www.w3.org/1999/xlink" x="0px" y="0px"
	 viewBox="0 0 129 125" style="enable-background:new 0 0 129 125;" xml:space="preserve">
<style type="text/css">
	.st0{fill-rule:evenodd;clip-rule:evenodd;fill:#FF876C;}
	.st1{fill-rule:evenodd;clip-rule:evenodd;fill:#E5E8EC;}
	.st2{fill:#484F59;}
	.st3{fill:#CDD5D7;}
	.st4{fill:#B7BEC0;}
	.st5{fill:#969C9E;}
</style>
<g id="Layer_1_1_">
	<desc>Created with Sketch.</desc>
	<g id="Oval-Copy">
		<circle id="path-1_1_" class="st0" cx="62.5" cy="62.5" r="62.5"/>
	</g>
</g>
<g>
	<g>
		<g>
			<path class="st1" d="M27,22.7v20.5v27v43.8c10.1,7,22.3,11.1,35.5,11.1c15,0,28.8-5.3,39.5-14.1V70.1V42.5L82.2,22.7H27z"/>
			<g>
				<polygon class="st2" points="82.2,42.5 102,42.5 82.2,22.7 				"/>
				<polygon class="st3" points="102,42.5 82.2,42.5 102,62.3 				"/>
			</g>
			<desc>Created with Sketch.</desc>
		</g>
	</g>
	<g>
		<g>
			<rect x="38.3" y="71.4" class="st4" width="52.9" height="1.3"/>
			<rect x="38.3" y="74.6" class="st4" width="54.2" height="1.3"/>
			<rect x="38.3" y="77.7" class="st4" width="53.1" height="1.3"/>
			<rect x="38.3" y="80.8" class="st4" width="46.8" height="1.3"/>
			<rect x="38.3" y="47.1" class="st4" width="52.9" height="1.3"/>
			<rect x="38.3" y="50.3" class="st4" width="54.2" height="1.3"/>
			<rect x="38.3" y="53.4" class="st4" width="53.1" height="1.3"/>
			<rect x="38.3" y="56.5" class="st4" width="32.1" height="1.3"/>
			<rect x="38.3" y="62.1" class="st4" width="52.9" height="1.3"/>
			<rect x="38.3" y="65.2" class="st4" width="54.2" height="1.3"/>
			<rect x="38.3" y="68.3" class="st4" width="53.1" height="1.3"/>
			<rect x="38.3" y="86.5" class="st4" width="52.9" height="1.3"/>
			<rect x="38.3" y="89.7" class="st4" width="54.2" height="1.3"/>
			<rect x="38.3" y="92.8" class="st4" width="53.1" height="1.3"/>
			<rect x="38.3" y="95.9" class="st4" width="32.1" height="1.3"/>
			<rect x="38.3" y="101.5" class="st4" width="52.9" height="1.3"/>
			<rect x="38.3" y="104.6" class="st4" width="54.2" height="1.3"/>
			<rect x="38.3" y="107.7" class="st4" width="17.4" height="1.3"/>
			<rect x="38.3" y="40.9" class="st5" width="25.3" height="2.1"/>
		</g>
	</g>
</g>
</svg>
