
<svg version="1.1" xmlns="http://www.w3.org/2000/svg" xmlns:xlink="http://www.w3.org/1999/xlink" x="0px" y="0px"
	 viewBox="0 0 84.9 78.2" style="enable-background:new 0 0 84.9 78.2;" xml:space="preserve">
<style type="text/css">
	.st0{fill:none;stroke:#FFFFFF;stroke-width:0.2;stroke-miterlimit:10;}
	.st1{fill:#FFFDFD;}
</style>
	<defs>
		<filter id="blur">
			<feGaussianBlur in="SourceGraphic" stdDeviation="1" />
		</filter>
		<filter id="blur2">
			<feGaussianBlur in="SourceGraphic" stdDeviation="0.3" />
		</filter>
  </defs>
	<polyline class="st0" points="74.6,4.7 70,9.1 45.8,40.8 30.3,49.5 17.2,58.1 9.9,61.2 40.6,72.5 75,67.1 78.8,58.7 76,15.5 
		74.6,4.7 	"/>
	<polygon class="st1" points="81.9,55.5 79.6,58.7 83.4,59.4 79.6,59.7 81.4,63.1 78.8,60.3 77.2,63.8 77.8,59.9 74.1,61 77.4,59.1 
		74.4,56.8 77.9,58.1 77.8,54.3 78.9,58 	"/>
	<polygon class="st1" points="78.1,63.4 75.8,66.6 79.6,67.4 75.7,67.6 77.6,71 75,68.3 73.3,71.7 74,67.9 70.3,68.9 73.6,67 
		70.5,64.7 74.1,66.1 74,62.2 75,65.9 	"/>
	<polygon class="st1" points="77.8,1.2 75.6,4.4 79.3,5.1 75.5,5.4 77.3,8.8 74.7,6 73.1,9.5 73.7,5.6 70,6.7 73.4,4.7 70.3,2.5 
		73.8,3.8 73.8,0 74.8,3.7 	"/>
	<polygon class="st1" points="73.9,10.1 70.7,9.8 71.8,12.7 70,10.2 68.4,12.8 69.3,9.9 66.2,10.2 69.1,9 66.9,6.9 69.6,8.4 
		69.9,5.4 70.4,8.4 73,6.8 70.9,9 	"/>
	<polygon class="st1" points="17.5,54 17.9,56.9 20.3,55.4 18.4,57.4 21.1,58.4 18.3,58.2 19.1,60.9 17.5,58.5 16.1,60.9 16.9,58.2 
		14.1,58.5 16.7,57.4 14.7,55.4 17.2,56.9 	"/>
	<polygon class="st1" points="48,36.9 46.7,40.2 50.1,40 46.8,41 49.1,43.6 46.3,41.7 45.5,45 45.3,41.6 42.4,43.2 44.8,40.9 
		41.8,39.5 45.1,40 44.3,36.7 45.9,39.7 	"/>
	<polygon class="st1" points="34.6,48.7 31.3,49.8 33.6,52.3 30.8,50.4 30.3,53.8 29.9,50.5 26.9,52.1 29.4,49.7 26.2,48.5 
		29.5,48.8 28.6,45.6 30.4,48.5 32.3,45.7 31.1,48.9 	"/>
	<path class="st1" d="M9.6,61.9c0,1.5,0.9,3.9,2.2,8.1c-0.5-4.3-0.5-6.9-1.1-8.3c0.8,0.7,2.6,1.5,5.2,2.9c-2.2-1.9-3.7-3.1-4.7-3.6
		c1.5,0,3.9-0.9,8.1-2.2c-4.3,0.5-6.9,0.5-8.3,1.1c0.7-0.8,1.5-2.6,2.9-5.2c-1.9,2.2-3.1,3.7-3.6,4.7c0-1.5-0.9-3.9-2.2-8.1
		c0.5,4.3,0.5,6.9,1.1,8.3c-0.8-0.7-2.6-1.5-5.2-2.9c2.2,1.9,3.7,3.1,4.7,3.6c-1.5,0-3.9,0.9-8.1,2.2c4.3-0.5,6.9-0.5,8.3-1.1
		c-0.7,0.8-1.5,2.6-2.9,5.2C7.7,64.2,9,62.8,9.6,61.9z M9.8,60.5L9.8,60.5L9.8,60.5L9.8,60.5C9.9,60.6,9.9,60.6,9.8,60.5
		C9.9,60.6,9.9,60.6,9.8,60.5C9.9,60.6,9.9,60.6,9.8,60.5C9.9,60.6,9.9,60.6,9.8,60.5C9.9,60.6,9.9,60.6,9.8,60.5
		C9.9,60.6,9.9,60.6,9.8,60.5C9.9,60.6,9.9,60.6,9.8,60.5C9.9,60.6,9.9,60.6,9.8,60.5C9.9,60.6,9.8,60.7,9.8,60.5
		C9.8,60.7,9.9,60.6,9.8,60.5C9.9,60.6,9.8,60.7,9.8,60.5C9.8,60.7,9.9,60.6,9.8,60.5C9.9,60.6,9.8,60.5,9.8,60.5z"/>
	<path class="st1" d="M39.5,73c-0.6,0.8-1.3,2.4-2.5,5.1c1.7-2.4,2.8-3.8,3.1-4.8c0.1,0.7,0.7,1.9,1.4,3.8c-0.3-1.9-0.5-3.2-0.8-3.9
		c0.8,0.6,2.4,1.3,5.1,2.5c-2.4-1.6-3.8-2.8-4.8-3.1c0.7-0.1,1.9-0.7,3.8-1.4c-1.9,0.3-3.2,0.5-3.9,0.8c0.6-0.8,1.3-2.4,2.5-5.1
		c-1.7,2.4-2.8,3.8-3.1,4.8c-0.1-0.7-0.7-1.9-1.4-3.8c0.3,1.9,0.5,3.2,0.8,3.9c-0.8-0.6-2.4-1.3-5.1-2.5c2.4,1.6,3.8,2.8,4.8,3.1
		c-0.7,0.1-1.9,0.7-3.8,1.4C37.5,73.4,38.8,73.3,39.5,73z M40.2,72.5L40.2,72.5L40.2,72.5L40.2,72.5C40.3,72.5,40.3,72.5,40.2,72.5
		C40.3,72.5,40.3,72.5,40.2,72.5C40.3,72.5,40.3,72.5,40.2,72.5C40.3,72.5,40.3,72.5,40.2,72.5C40.3,72.5,40.3,72.5,40.2,72.5
		C40.3,72.5,40.3,72.5,40.2,72.5C40.3,72.5,40.3,72.5,40.2,72.5C40.3,72.5,40.3,72.5,40.2,72.5C40.3,72.5,40.2,72.5,40.2,72.5
		C40.2,72.5,40.3,72.5,40.2,72.5C40.3,72.5,40.2,72.5,40.2,72.5C40.2,72.5,40.3,72.5,40.2,72.5C40.3,72.5,40.2,72.5,40.2,72.5z"/>
	<path class="st1" d="M75.8,15.8c-0.3,1.3-0.1,3.6,0.1,7.5c0.5-3.8,1.1-6.2,0.9-7.5c0.6,0.8,1.9,1.9,3.9,3.7
		c-1.5-2.1-2.5-3.5-3.3-4.2c1.3,0.3,3.6,0.1,7.5-0.1c-3.8-0.5-6.2-1.1-7.5-0.9c0.8-0.6,1.9-1.9,3.7-3.9C79,12,77.6,13,76.9,13.8
		c0.3-1.3,0.1-3.6-0.1-7.5c-0.5,3.8-1.1,6.2-0.9,7.5c-0.6-0.8-1.9-1.9-3.9-3.7c1.5,2.1,2.5,3.5,3.3,4.2c-1.3-0.3-3.6-0.1-7.5,0.1
		c3.8,0.5,6.2,1.1,7.5,0.9c-0.8,0.6-1.9,1.9-3.7,3.9C73.7,17.5,75.1,16.5,75.8,15.8z M76.3,14.7L76.3,14.7L76.3,14.7L76.3,14.7
		C76.4,14.8,76.4,14.8,76.3,14.7C76.4,14.8,76.4,14.8,76.3,14.7C76.4,14.8,76.4,14.8,76.3,14.7C76.4,14.8,76.4,14.8,76.3,14.7
		C76.4,14.8,76.4,14.8,76.3,14.7C76.4,14.8,76.4,14.8,76.3,14.7C76.4,14.8,76.4,14.8,76.3,14.7C76.4,14.8,76.4,14.8,76.3,14.7
		C76.4,14.8,76.3,14.9,76.3,14.7C76.3,14.9,76.4,14.8,76.3,14.7C76.4,14.8,76.3,14.9,76.3,14.7C76.3,14.9,76.4,14.8,76.3,14.7
		C76.4,14.8,76.3,14.7,76.3,14.7z"/>
</svg>
