<svg version="1.1" id="Layer_1" xmlns="http://www.w3.org/2000/svg" xmlns:xlink="http://www.w3.org/1999/xlink" x="0px" y="0px"
	 viewBox="0 0 80.1 102.6" style="enable-background:new 0 0 80.1 102.6;" xml:space="preserve">
<style type="text/css">
	.st0{fill:none;stroke:#FFFFFF;stroke-width:0.2;stroke-miterlimit:10;}
	.st1{fill:#FFFDFD; transition: all .1s linear}
</style>
	  <defs>
		<filter id="blur">
			<feGaussianBlur in="SourceGraphic" stdDeviation="1" />
		</filter>
		<filter id="blur2">
			<feGaussianBlur in="SourceGraphic" stdDeviation="0.3" />
		</filter>
  </defs>
<polyline class="st0" points="51.3,9.9 35,5.5 29.8,27 37.5,45.8 14.3,66.1 10.4,93.3 28.4,76.6 71.3,59.7 53.7,47.4 37.8,45.8 " filter="url(#blur2)"/>
<polygon class="st1" points="54.1,41.1 54.8,46.3 59.3,43.6 55.7,47.4 60.5,49.2 55.3,48.7 57,53.7 54.1,49.3 51.2,53.7 52.9,48.7 47.7,49.2 
	52.6,47.4 49,43.6 53.4,46.3 " filter="url(#blur)"/>
<polygon class="st1" points="33.9,21.7 31,26 36.2,26.9 31,27.4 33.5,32 29.9,28.2 27.9,33.1 28.6,27.9 23.6,29.3 28,26.6 23.8,23.6 28.6,25.4 
	28.3,20.2 30,25.1 " filter="url(#blur)"/>
<polygon class="st1" points="38.3,-0.1 36.6,4.8 41.8,4.5 36.9,6.2 40.4,10 36,7.2 35.2,12.4 34.6,7.2 30.1,9.8 33.8,6.1 28.9,4.2 34.1,4.8 
	32.6,-0.2 35.4,4.2 " filter="url(#blur)"/>
<polygon class="st1" points="28.5,70.3 29.2,75.4 33.6,72.8 30,76.5 34.9,78.3 29.7,77.9 31.3,82.8 28.5,78.5 25.6,82.8 27.2,77.9 22,78.3 
	26.9,76.5 23.3,72.8 27.8,75.4 " filter="url(#blur)"/>
<polygon class="st1" points="14.7,59.6 15.4,64.7 19.8,62 16.2,65.8 21.1,67.6 15.9,67.1 17.5,72.1 14.7,67.7 11.8,72.1 13.4,67.1 8.3,67.6 
	13.1,65.8 9.5,62 14,64.7 " filter="url(#blur)"/>
<path class="st1" d="M37.9,46.9c0.8,1.2,2.9,2.8,6.2,5.6c-2.7-3.3-4.2-5.4-5.4-6.3c1.1,0.1,3-0.1,5.9-0.4
	c-2.9-0.3-4.7-0.6-5.8-0.5c1.2-0.8,2.8-2.9,5.6-6.2c-3.3,2.7-5.4,4.2-6.3,5.4c0.1-1.1-0.1-3-0.4-5.9c-0.3,2.9-0.6,4.7-0.5,5.8
	c-0.8-1.2-2.9-2.8-6.2-5.6c2.7,3.3,4.2,5.4,5.4,6.3c-1.1-0.1-3,0.1-5.9,0.4c2.9,0.3,4.7,0.6,5.8,0.5c-1.2,0.8-2.8,2.9-5.6,6.2
	c3.3-2.7,5.4-4.2,6.3-5.4c-0.1,1.1,0.1,3,0.4,5.9C37.7,49.9,38,48,37.9,46.9z M37.5,45.8C37.5,45.8,37.5,45.7,37.5,45.8
	C37.5,45.7,37.5,45.7,37.5,45.8C37.5,45.7,37.5,45.7,37.5,45.8C37.5,45.7,37.5,45.7,37.5,45.8C37.5,45.7,37.5,45.7,37.5,45.8
	C37.5,45.7,37.5,45.7,37.5,45.8C37.5,45.7,37.5,45.7,37.5,45.8C37.5,45.7,37.5,45.7,37.5,45.8C37.5,45.7,37.5,45.7,37.5,45.8
	C37.5,45.7,37.5,45.8,37.5,45.8C37.5,45.8,37.5,45.8,37.5,45.8C37.5,45.8,37.5,45.8,37.5,45.8C37.5,45.8,37.5,45.8,37.5,45.8
	C37.5,45.8,37.5,45.8,37.5,45.8C37.5,45.8,37.5,45.8,37.5,45.8C37.5,45.8,37.5,45.8,37.5,45.8z" filter="url(#blur)"/>
<path class="st1" d="M52,11.2c1,1.1,3.4,2.2,7.1,4.2c-3.3-2.7-5.2-4.5-6.6-5.1c1.1-0.1,2.9-0.7,5.7-1.5
	c-2.9,0.3-4.7,0.4-5.8,0.7c1.1-1,2.2-3.4,4.2-7.1c-2.7,3.3-4.5,5.2-5.1,6.6c-0.1-1.1-0.7-2.9-1.5-5.7c0.3,2.9,0.4,4.7,0.7,5.8
	c-1-1.1-3.4-2.2-7.1-4.2c3.3,2.7,5.2,4.5,6.6,5.1c-1.1,0.1-2.9,0.7-5.7,1.5c2.9-0.3,4.7-0.4,5.8-0.7c-1.1,1-2.2,3.4-4.2,7.1
	c2.7-3.3,4.5-5.2,5.1-6.6c0.1,1.1,0.7,2.9,1.5,5.7C52.4,14.2,52.4,12.3,52,11.2z M51.4,10.2C51.4,10.2,51.4,10.2,51.4,10.2
	C51.4,10.2,51.4,10.2,51.4,10.2C51.4,10.2,51.4,10.2,51.4,10.2C51.4,10.2,51.4,10.2,51.4,10.2C51.4,10.2,51.4,10.2,51.4,10.2
	C51.4,10.2,51.4,10.1,51.4,10.2C51.4,10.1,51.4,10.2,51.4,10.2C51.4,10.2,51.4,10.2,51.4,10.2C51.4,10.2,51.4,10.2,51.4,10.2
	C51.4,10.2,51.4,10.2,51.4,10.2C51.4,10.2,51.4,10.2,51.4,10.2C51.4,10.2,51.4,10.2,51.4,10.2C51.4,10.2,51.4,10.2,51.4,10.2
	C51.4,10.2,51.4,10.2,51.4,10.2C51.4,10.2,51.4,10.2,51.4,10.2C51.4,10.2,51.4,10.2,51.4,10.2z" filter="url(#blur)"/>
<path class="st1" d="M71.8,60.7c0.9,1.2,3,2.6,6.4,5.3c-2.9-3.2-4.5-5.2-5.7-6c1.1,0.1,2.9-0.3,5.8-0.7
	c-2.9-0.2-4.7-0.4-5.9-0.2c1.2-0.9,2.6-3,5.3-6.4c-3.2,2.9-5.2,4.5-6,5.7c0.1-1.1-0.3-2.9-0.7-5.8c-0.2,2.9-0.4,4.7-0.2,5.9
	c-0.9-1.2-3-2.6-6.4-5.3c2.9,3.2,4.5,5.2,5.7,6c-1.1-0.1-2.9,0.3-5.8,0.7c2.9,0.2,4.7,0.4,5.9,0.2c-1.2,0.9-2.6,3-5.3,6.4
	c3.2-2.9,5.2-4.5,6-5.7c-0.1,1.1,0.3,2.9,0.7,5.8C71.7,63.7,71.9,61.8,71.8,60.7z M71.3,59.6C71.3,59.6,71.3,59.6,71.3,59.6
	C71.3,59.5,71.3,59.5,71.3,59.6C71.3,59.5,71.3,59.5,71.3,59.6C71.3,59.5,71.3,59.5,71.3,59.6C71.3,59.5,71.3,59.5,71.3,59.6
	C71.3,59.5,71.3,59.5,71.3,59.6C71.3,59.5,71.3,59.5,71.3,59.6C71.3,59.5,71.3,59.5,71.3,59.6C71.3,59.5,71.3,59.5,71.3,59.6
	C71.3,59.6,71.3,59.6,71.3,59.6C71.3,59.6,71.3,59.6,71.3,59.6C71.3,59.6,71.3,59.6,71.3,59.6C71.3,59.6,71.3,59.6,71.3,59.6
	C71.3,59.6,71.3,59.6,71.3,59.6C71.3,59.6,71.3,59.6,71.3,59.6C71.3,59.6,71.3,59.6,71.3,59.6z" filter="url(#blur)"/>
<path class="st1" d="M10.6,94.5c0.6,1.4,2.3,3.3,5,6.7c-2-3.8-3.1-6.2-4.1-7.2c1.1,0.3,2.9,0.5,5.8,0.8
	c-2.8-0.9-4.5-1.5-5.6-1.6c1.4-0.6,3.3-2.3,6.7-5c-3.8,2-6.2,3.1-7.2,4.1c0.3-1.1,0.5-2.9,0.8-5.8c-0.9,2.8-1.5,4.5-1.6,5.6
	c-0.6-1.4-2.3-3.3-5-6.7c2,3.8,3.1,6.2,4.1,7.2c-1.1-0.3-2.9-0.5-5.8-0.8c2.8,0.9,4.5,1.5,5.6,1.6c-1.4,0.6-3.3,2.3-6.7,5
	c3.8-2,6.2-3.1,7.2-4.1c-0.3,1.1-0.5,2.9-0.8,5.8C9.8,97.4,10.5,95.6,10.6,94.5z M10.4,93.3C10.4,93.3,10.4,93.3,10.4,93.3
	C10.4,93.3,10.4,93.3,10.4,93.3C10.4,93.3,10.4,93.3,10.4,93.3C10.4,93.3,10.4,93.3,10.4,93.3C10.4,93.3,10.4,93.3,10.4,93.3
	C10.4,93.3,10.4,93.3,10.4,93.3C10.4,93.3,10.4,93.3,10.4,93.3C10.4,93.3,10.4,93.3,10.4,93.3C10.4,93.3,10.4,93.3,10.4,93.3
	C10.4,93.3,10.4,93.3,10.4,93.3C10.4,93.3,10.4,93.3,10.4,93.3C10.4,93.3,10.4,93.3,10.4,93.3C10.4,93.3,10.4,93.3,10.4,93.3
	C10.4,93.3,10.4,93.3,10.4,93.3C10.4,93.3,10.4,93.3,10.4,93.3C10.4,93.3,10.4,93.3,10.4,93.3z" filter="url(#blur)"/>
</svg>