
<svg version="1.1" id="Layer_1" xmlns="http://www.w3.org/2000/svg" xmlns:xlink="http://www.w3.org/1999/xlink" x="0px" y="0px"
	 viewBox="0 0 81.1 101.6" style="enable-background:new 0 0 81.1 101.6;" xml:space="preserve">
<style type="text/css">
	.st0{fill:none;stroke:#FFFFFF;stroke-width:0.2;stroke-miterlimit:10;}
	.st1{fill:#FFFDFD;}
</style>
	<defs>
		<filter id="blur">
			<feGaussianBlur in="SourceGraphic" stdDeviation="1" />
		</filter>
		<filter id="blur2">
			<feGaussianBlur in="SourceGraphic" stdDeviation="0.3" />
		</filter>
  </defs>
<polyline class="st0" points="3.9,79.2 15.7,74.2 14.8,83.5 13.3,88.8 22.7,93.4 38.9,86.5 48.7,80.6 44.2,61.1 40.5,53 46.4,34.3 
	52.4,26.9 58.4,24 66.3,3.8 58.4,24 74.3,11.7 58.4,24 77.2,25.5 "/>
<polygon class="st1" points="43.7,49.4 41.5,52.6 45.2,53.4 41.4,53.6 43.2,57 40.6,54.3 39,57.7 39.6,53.9 35.9,54.9 39.2,53 
	36.2,50.7 39.7,52.1 39.7,48.3 40.7,52 "/>
<polygon class="st1" points="18.9,70.6 16.7,73.8 20.4,74.6 16.6,74.8 18.4,78.2 15.8,75.5 14.2,78.9 14.8,75.1 11.1,76.1 
	14.5,74.2 11.4,71.9 15,73.3 14.9,69.5 15.9,73.2 "/>
<polygon class="st1" points="41.4,83.7 39.6,86.2 42.6,86.8 39.6,87 41,89.6 39,87.5 37.7,90.2 38.2,87.2 35.3,88 37.9,86.5 
	35.5,84.7 38.3,85.7 38.2,82.7 39,85.6 "/>
<polygon class="st1" points="51.2,77.6 49.4,80.1 52.4,80.7 49.4,80.9 50.8,83.5 48.8,81.4 47.5,84.1 48,81.1 45.1,81.9 47.7,80.4 
	45.3,78.6 48.1,79.7 48,76.7 48.8,79.6 "/>
<polygon class="st1" points="46.7,58.7 44.9,61.2 47.9,61.8 44.9,61.9 46.3,64.6 44.3,62.5 43,65.2 43.5,62.1 40.6,63 43.2,61.5 
	40.8,59.7 43.6,60.7 43.5,57.7 44.3,60.6 "/>
<polygon class="st1" points="62.1,24.6 59,24.4 60,27.2 58.3,24.7 56.7,27.3 57.6,24.5 54.6,24.7 57.4,23.6 55.3,21.6 57.9,23 
	58.2,20.1 58.7,23 61.3,21.4 59.2,23.6 "/>
<polygon class="st1" points="48.7,37.3 46.7,35 45.4,37.8 45.9,34.8 43,35.6 45.6,34.1 43.2,32.2 46,33.4 45.9,30.4 46.8,33.2 
	49.1,31.3 47.4,33.8 50.3,34.4 47.3,34.6 "/>
<polygon class="st1" points="3.7,75.5 4.1,78.6 6.7,77 4.6,79.2 7.5,80.2 4.5,80 5.4,82.9 3.7,80.3 2.1,82.9 3,80 0,80.3 2.8,79.2 
	0.7,77 3.3,78.6 "/>
<polygon class="st1" points="66.3,0 66.7,3.1 69.3,1.5 67.2,3.7 70.1,4.7 67.1,4.5 68,7.4 66.3,4.8 64.7,7.4 65.6,4.5 62.6,4.8 
	65.4,3.7 63.3,1.5 65.9,3.1 "/>
<polygon class="st1" points="76.4,8.6 74.8,11.3 77.8,11.7 74.8,12.1 76.4,14.7 74.2,12.6 73,15.4 73.4,12.3 70.5,13.3 73,11.7 
	70.5,10 73.4,10.9 73.2,7.9 74.1,10.8 "/>
<polygon class="st1" points="79.7,22.5 78,25.2 81.1,25.6 78,26 79.6,28.6 77.5,26.5 76.3,29.3 76.7,26.2 73.8,27.2 76.3,25.5 
	73.8,23.9 76.7,24.8 76.4,21.8 77.4,24.7 "/>
<polygon class="st1" points="14.6,81.1 14.9,83.4 16.8,82.2 15.3,83.8 17.4,84.5 15.2,84.4 15.8,86.5 14.6,84.6 13.5,86.5 
	14.1,84.4 12,84.6 14,83.8 12.5,82.2 14.3,83.4 "/>
<polygon class="st1" points="15.6,87.4 13.8,88.8 15.8,89.8 13.6,89.3 14.1,91.5 13.1,89.5 11.6,91.1 12.6,89.1 10.4,89.1 
	12.6,88.6 11.3,86.8 13,88.2 13.6,86.1 13.5,88.3 "/>
<path class="st1" d="M22.9,93.5c0,1.5,0.9,3.9,2.2,8.1c-0.5-4.3-0.5-6.9-1.1-8.3c0.8,0.7,2.6,1.5,5.2,2.9c-2.2-1.9-3.7-3.1-4.7-3.6
	c1.5,0,3.9-0.9,8.1-2.2c-4.3,0.5-6.9,0.5-8.3,1.1c0.7-0.8,1.5-2.6,2.9-5.2C25.3,88.6,24,90,23.5,91c0-1.5-0.9-3.9-2.2-8.1
	c0.5,4.3,0.5,6.9,1.1,8.3c-0.8-0.7-2.6-1.5-5.2-2.9c2.2,1.9,3.7,3.1,4.7,3.6c-1.5,0-3.9,0.9-8.1,2.2c4.3-0.5,6.9-0.5,8.3-1.1
	c-0.7,0.8-1.5,2.6-2.9,5.2C21.1,95.9,22.4,94.5,22.9,93.5z M23.2,92.2L23.2,92.2L23.2,92.2L23.2,92.2C23.2,92.3,23.2,92.3,23.2,92.2
	C23.2,92.3,23.2,92.3,23.2,92.2C23.2,92.3,23.2,92.3,23.2,92.2C23.2,92.3,23.2,92.3,23.2,92.2C23.2,92.3,23.2,92.3,23.2,92.2
	C23.2,92.3,23.2,92.3,23.2,92.2C23.2,92.3,23.2,92.3,23.2,92.2C23.2,92.3,23.2,92.3,23.2,92.2C23.2,92.3,23.2,92.3,23.2,92.2
	C23.2,92.3,23.2,92.3,23.2,92.2C23.2,92.3,23.2,92.3,23.2,92.2C23.2,92.3,23.2,92.3,23.2,92.2C23.2,92.3,23.2,92.2,23.2,92.2z"/>
<path class="st1" d="M51.7,28c-0.3,1.3-0.1,3.6,0.1,7.5c0.5-3.8,1.1-6.2,0.9-7.5c0.6,0.8,1.9,1.9,3.9,3.7c-1.5-2.1-2.5-3.5-3.3-4.2
	c1.3,0.3,3.6,0.1,7.5-0.1c-3.8-0.5-6.2-1.1-7.5-0.9c0.8-0.6,1.9-1.9,3.7-3.9c-2.1,1.5-3.5,2.5-4.2,3.3c0.3-1.3,0.1-3.6-0.1-7.5
	c-0.5,3.8-1.1,6.2-0.9,7.5c-0.6-0.8-1.9-1.9-3.9-3.7c1.5,2.1,2.5,3.5,3.3,4.2c-1.3-0.3-3.6-0.1-7.5,0.1c3.8,0.5,6.2,1.1,7.5,0.9
	c-0.8,0.6-1.9,1.9-3.7,3.9C49.6,29.7,51,28.7,51.7,28z M52.2,26.9L52.2,26.9L52.2,26.9L52.2,26.9C52.3,27,52.3,27,52.2,26.9
	C52.3,27,52.3,27,52.2,26.9C52.3,27,52.3,27,52.2,26.9C52.3,27,52.3,27,52.2,26.9C52.3,27,52.3,27,52.2,26.9
	C52.3,27,52.3,27,52.2,26.9C52.3,27,52.3,27,52.2,26.9C52.3,27,52.3,27,52.2,26.9C52.3,27,52.2,27,52.2,26.9
	C52.2,27,52.3,27,52.2,26.9C52.3,27,52.2,27,52.2,26.9C52.2,27,52.3,27,52.2,26.9C52.3,27,52.2,26.9,52.2,26.9z"/>
</svg>
