
<svg version="1.1" id="Layer_1" xmlns="http://www.w3.org/2000/svg" xmlns:xlink="http://www.w3.org/1999/xlink" x="0px" y="0px"
	 viewBox="0 0 84.4 84.3" style="enable-background:new 0 0 84.4 84.3;" xml:space="preserve">
<style type="text/css">
	.st0{fill:none;stroke:#FFFFFF;stroke-width:0.2;stroke-miterlimit:10;}
	.st1{fill:#FFFDFD;}
</style>
	<defs>
		<filter id="blur">
			<feGaussianBlur in="SourceGraphic" stdDeviation="1" />
		</filter>
		<filter id="blur2">
			<feGaussianBlur in="SourceGraphic" stdDeviation="0.3" />
		</filter>
  </defs>
<polyline class="st0" points="14.9,4.7 29.7,7.9 38.4,27.6 42.3,43.4 27.9,51.9 10,56.4 "/>
<polyline class="st0" points="42.3,43.4 57.4,60.8 41.8,79.6 57.4,60.7 77.3,68.9 "/>
<polygon class="st1" points="60,57.9 58.2,60.4 61.2,61 58.2,61.2 59.6,63.9 57.6,61.7 56.3,64.5 56.8,61.4 53.8,62.2 56.5,60.7 
	54.1,58.9 56.9,60 56.8,56.9 57.6,59.9 "/>
<polygon class="st1" points="31.1,48.4 28.8,51.6 32.6,52.3 28.8,52.6 30.6,56 28,53.2 26.3,56.7 27,52.8 23.3,53.9 26.6,51.9 
	23.6,49.7 27.1,51 27,47.2 28.1,50.9 "/>
<polygon class="st1" points="45.7,76 43.4,79.2 47.2,79.9 43.4,80.2 45.2,83.6 42.6,80.8 41,84.3 41.6,80.4 37.9,81.5 41.2,79.6 
	38.2,77.3 41.7,78.6 41.6,74.8 42.7,78.5 "/>
<polygon class="st1" points="38.3,23.9 38.7,27 41.3,25.4 39.2,27.6 42.1,28.6 39.1,28.4 40,31.3 38.3,28.7 36.7,31.3 37.6,28.4 
	34.6,28.7 37.4,27.6 35.3,25.4 37.9,27 "/>
<polygon class="st1" points="17.6,2.1 15.6,4.6 18.6,5.3 15.5,5.4 16.8,8.1 14.9,5.8 13.4,8.5 14.1,5.5 11.1,6.1 13.8,4.7 11.5,2.8 
	14.3,4 14.4,1 15,4 "/>
<path class="st1" d="M77.8,70.1c0.9,1.2,3,2.7,6.5,5.3c-2.9-3.2-4.5-5.3-5.8-6.1c1.1,0.1,3-0.3,5.9-0.7c-2.9-0.2-4.8-0.4-5.9-0.2
	c1.2-0.9,2.7-3,5.3-6.5c-3.2,2.9-5.3,4.5-6.1,5.8c0.1-1.1-0.3-3-0.7-5.9c-0.2,2.9-0.4,4.8-0.2,5.9c-0.9-1.2-3-2.7-6.5-5.3
	c2.9,3.2,4.5,5.3,5.8,6.1c-1.1-0.1-3,0.3-5.9,0.7c2.9,0.2,4.8,0.4,5.9,0.2c-1.2,0.9-2.7,3-5.3,6.5c3.2-2.9,5.3-4.5,6.1-5.8
	c-0.1,1.1,0.3,3,0.7,5.9C77.7,73.1,77.9,71.2,77.8,70.1z M77.2,68.9L77.2,68.9L77.2,68.9L77.2,68.9C77.3,68.9,77.3,68.9,77.2,68.9
	C77.3,68.9,77.3,68.9,77.2,68.9C77.3,68.9,77.3,68.9,77.2,68.9C77.3,68.9,77.3,68.9,77.2,68.9C77.3,68.9,77.3,68.9,77.2,68.9
	C77.3,68.9,77.3,68.9,77.2,68.9C77.3,68.9,77.3,68.9,77.2,68.9C77.3,68.9,77.3,68.9,77.2,68.9C77.3,68.9,77.3,69,77.2,68.9
	C77.3,69,77.3,68.9,77.2,68.9C77.3,68.9,77.3,69,77.2,68.9C77.3,69,77.3,68.9,77.2,68.9C77.3,68.9,77.2,68.9,77.2,68.9z"/>
<path class="st1" d="M9.1,57.7c0,1.5,0.9,3.9,2.2,8.1c-0.5-4.3-0.5-6.9-1.1-8.3c0.8,0.7,2.6,1.5,5.2,2.9c-2.2-1.9-3.7-3.1-4.7-3.6
	c1.5,0,3.9-0.9,8.1-2.2c-4.3,0.5-6.9,0.5-8.3,1.1c0.7-0.8,1.5-2.6,2.9-5.2c-1.9,2.2-3.1,3.7-3.6,4.7c0-1.5-0.9-3.9-2.2-8.1
	C8,51.4,8,54,8.6,55.4c-0.8-0.7-2.6-1.5-5.2-2.9c2.2,1.9,3.7,3.1,4.7,3.6c-1.5,0-3.9,0.9-8.1,2.2c4.3-0.5,6.9-0.5,8.3-1.1
	c-0.7,0.8-1.5,2.6-2.9,5.2C7.2,60.1,8.5,58.7,9.1,57.7z M9.3,56.4L9.3,56.4L9.3,56.4L9.3,56.4C9.4,56.4,9.4,56.4,9.3,56.4
	C9.4,56.4,9.4,56.4,9.3,56.4C9.4,56.4,9.4,56.4,9.3,56.4C9.4,56.4,9.4,56.4,9.3,56.4C9.4,56.4,9.4,56.4,9.3,56.4
	C9.4,56.4,9.4,56.4,9.3,56.4C9.4,56.4,9.4,56.4,9.3,56.4C9.4,56.4,9.4,56.4,9.3,56.4C9.4,56.4,9.3,56.5,9.3,56.4
	C9.3,56.5,9.4,56.4,9.3,56.4C9.4,56.4,9.3,56.5,9.3,56.4C9.3,56.5,9.4,56.4,9.3,56.4C9.4,56.4,9.3,56.4,9.3,56.4z"/>
<path class="st1" d="M29.4,9c0,1.3,0.7,3.3,1.8,6.8c-0.4-3.6-0.5-5.8-1-7c0.7,0.6,2.2,1.3,4.4,2.4c-1.9-1.6-3.1-2.6-3.9-3
	c1.3,0,3.3-0.7,6.8-1.8c-3.6,0.4-5.8,0.5-7,1c0.6-0.7,1.3-2.2,2.4-4.4c-1.6,1.9-2.6,3.1-3,3.9c0-1.3-0.7-3.3-1.8-6.8
	c0.4,3.6,0.5,5.8,1,7c-0.7-0.6-2.2-1.3-4.4-2.4c1.9,1.6,3.1,2.6,3.9,3c-1.3,0-3.3,0.7-6.8,1.8c3.6-0.4,5.8-0.5,7-1
	c-0.6,0.7-1.3,2.2-2.4,4.4C27.9,11,29,9.8,29.4,9z M29.6,7.8L29.6,7.8L29.6,7.8L29.6,7.8C29.7,7.9,29.7,7.9,29.6,7.8
	C29.7,7.9,29.7,7.9,29.6,7.8C29.7,7.9,29.7,7.9,29.6,7.8C29.7,7.9,29.7,7.9,29.6,7.8C29.7,7.9,29.7,7.9,29.6,7.8
	C29.7,7.9,29.7,7.9,29.6,7.8C29.7,7.9,29.7,7.9,29.6,7.8C29.7,7.9,29.7,7.9,29.6,7.8C29.7,7.9,29.6,8,29.6,7.8
	C29.6,8,29.7,7.9,29.6,7.8C29.7,7.9,29.6,8,29.6,7.8C29.6,8,29.7,7.9,29.6,7.8C29.7,7.9,29.6,7.8,29.6,7.8z"/>
<path class="st1" d="M41.8,44.4c-0.3,1.3-0.1,3.6,0.1,7.5c0.5-3.8,1.1-6.2,0.9-7.5c0.6,0.8,1.9,1.9,3.9,3.7
	c-1.5-2.1-2.5-3.5-3.3-4.2c1.3,0.3,3.6,0.1,7.5-0.1c-3.8-0.5-6.2-1.1-7.5-0.9c0.8-0.6,1.9-1.9,3.7-3.9c-2.1,1.5-3.5,2.5-4.2,3.3
	c0.3-1.3,0.1-3.6-0.1-7.5c-0.5,3.8-1.1,6.2-0.9,7.5c-0.6-0.8-1.9-1.9-3.9-3.7c1.5,2.1,2.5,3.5,3.3,4.2c-1.3-0.3-3.6-0.1-7.5,0.1
	c3.8,0.5,6.2,1.1,7.5,0.9c-0.8,0.6-1.9,1.9-3.7,3.9C39.7,46.1,41.1,45.1,41.8,44.4z M42.3,43.3L42.3,43.3L42.3,43.3L42.3,43.3
	C42.3,43.4,42.3,43.4,42.3,43.3C42.3,43.4,42.3,43.4,42.3,43.3C42.3,43.4,42.3,43.4,42.3,43.3C42.3,43.4,42.3,43.4,42.3,43.3
	C42.3,43.4,42.3,43.4,42.3,43.3C42.3,43.4,42.3,43.4,42.3,43.3C42.3,43.4,42.3,43.4,42.3,43.3C42.3,43.4,42.3,43.4,42.3,43.3
	C42.3,43.4,42.3,43.5,42.3,43.3C42.3,43.5,42.3,43.4,42.3,43.3C42.3,43.4,42.3,43.5,42.3,43.3C42.3,43.5,42.3,43.4,42.3,43.3
	C42.3,43.4,42.3,43.3,42.3,43.3z"/>
</svg>
